{
  "accessors": [
    {
      "bufferView": 0,
      "componentType": 5126,
      "count": 604,
      "max": [
        7.290891170501709,
        13.170950889587402,
        9.484317779541016
      ],
      "min": [
        -8.398246765136719,
        -0.029863078147172928,
        -5.622622013092041
      ],
      "name": "JiQi/POSITION",
      "type": "VEC3"
    },
    {
      "bufferView": 0,
      "byteOffset": 12,
      "componentType": 5126,
      "count": 604,
      "name": "JiQi/NORMAL",
      "type": "VEC3"
    },
    {
      "bufferView": 0,
      "byteOffset": 24,
      "componentType": 5126,
      "count": 604,
      "name": "JiQi/TEXCOORD_0",
      "type": "VEC2"
    },
    {
      "bufferView": 0,
      "byteOffset": 32,
      "componentType": 5126,
      "count": 604,
      "name": "JiQi/TEXCOORD_1",
      "type": "VEC2"
    },
    {
      "bufferView": 0,
      "byteOffset": 40,
      "componentType": 5126,
      "count": 604,
      "name": "JiQi/COLOR_0",
      "type": "VEC4"
    },
    {
      "bufferView": 0,
      "byteOffset": 56,
      "componentType": 5123,
      "count": 604,
      "name": "JiQi/JOINTS_0",
      "type": "VEC4"
    },
    {
      "bufferView": 0,
      "byteOffset": 64,
      "componentType": 5126,
      "count": 604,
      "name": "JiQi/WEIGHTS_0",
      "type": "VEC4"
    },
    {
      "bufferView": 1,
      "componentType": 5123,
      "count": 2412,
      "name": "JiQi/INDICES",
      "type": "SCALAR"
    },
    {
      "bufferView": 2,
      "componentType": 5126,
      "count": 2,
      "name": "/InverseBindMatrices",
      "type": "MAT4"
    },
    {
      "bufferView": 3,
      "componentType": 5126,
      "count": 697,
      "max": [
        6.882543563842773,
        15.905665397644043,
        8.53396224975586
      ],
      "min": [
        1.0454745292663574,
        9.707243919372559,
        1.5755506753921509
      ],
      "name": "XiaoMai/POSITION",
      "type": "VEC3"
    },
    {
      "bufferView": 3,
      "byteOffset": 12,
      "componentType": 5126,
      "count": 697,
      "name": "XiaoMai/NORMAL",
      "type": "VEC3"
    },
    {
      "bufferView": 3,
      "byteOffset": 24,
      "componentType": 5126,
      "count": 697,
      "name": "XiaoMai/TEXCOORD_0",
      "type": "VEC2"
    },
    {
      "bufferView": 3,
      "byteOffset": 32,
      "componentType": 5123,
      "count": 697,
      "name": "XiaoMai/JOINTS_0",
      "type": "VEC4"
    },
    {
      "bufferView": 3,
      "byteOffset": 40,
      "componentType": 5126,
      "count": 697,
      "name": "XiaoMai/WEIGHTS_0",
      "type": "VEC4"
    },
    {
      "bufferView": 4,
      "componentType": 5123,
      "count": 3870,
      "name": "XiaoMai/INDICES",
      "type": "SCALAR"
    },
    {
      "bufferView": 5,
      "componentType": 5126,
      "count": 19,
      "name": "/InverseBindMatrices",
      "type": "MAT4"
    }
  ],
  "asset": {
    "copyright": "Copyright (c) 2018-2020 Chukong Technologies Inc.",
    "generator": "FBX-glTF-conv",
    "version": "2.0"
  },
  "bufferViews": [
    {
      "buffer": 0,
      "byteLength": 48320,
      "byteStride": 80,
      "name": "JiQi",
      "target": 34962
    },
    {
      "buffer": 0,
      "byteLength": 4824,
      "byteOffset": 48320,
      "target": 34963
    },
    {
      "buffer": 0,
      "byteLength": 128,
      "byteOffset": 53144
    },
    {
      "buffer": 0,
      "byteLength": 39032,
      "byteOffset": 53272,
      "byteStride": 56,
      "name": "XiaoMai",
      "target": 34962
    },
    {
      "buffer": 0,
      "byteLength": 7740,
      "byteOffset": 92304,
      "target": 34963
    },
    {
      "buffer": 0,
      "byteLength": 1216,
      "byteOffset": 100044
    }
  ],
  "buffers": [
    {
      "byteLength": 101260,
      "uri": "out.bin"
    }
  ],
  "extras": {
    "FBX-glTF-conv": {
      "animationFrameRate": 30.0,
      "fbxFileHeaderInfo": {
        "creationTimeStamp": {
          "day": 9,
          "hour": 11,
          "millisecond": 894,
          "minute": 12,
          "month": 7,
          "second": 30,
          "year": 2025
        },
        "creator": "FBX SDK/FBX Plugins version 2016.0",
        "sceneInfo": {
          "author": "",
          "comment": "",
          "keywords": "",
          "original": {
            "applicationName": "3ds Max",
            "applicationVendor": "Autodesk",
            "applicationVersion": "2014",
            "fileName": "C:\\Users\\Administrator\\Desktop\\xiaomai\\xiaomai\\xiaomai.FBX"
          },
          "revision": "",
          "subject": "",
          "title": "",
          "url": "D:\\Project\\shamohuocheshouge\\Client\\cocos\\SMHCSG\\assets\\models\\小麦处理机.FBX"
        }
      }
    }
  },
  "materials": [
    {
      "extras": {
        "FBX-glTF-conv": {
          "raw": {
            "properties": {
              "ambient": {
                "value": [
                  0.5879999995231628,
                  0.5879999995231628,
                  0.5879999995231628
                ]
              },
              "ambientFactor": {
                "value": 0.0
              },
              "bump": {
                "value": [
                  0.0,
                  0.0,
                  0.0
                ]
              },
              "bumpFactor": {
                "value": 1.0
              },
              "diffuse": {
                "value": [
                  0.5879999995231628,
                  0.5879999995231628,
                  0.5879999995231628
                ]
              },
              "diffuseFactor": {
                "value": 1.0
              },
              "displacementColor": {
                "value": [
                  0.0,
                  0.0,
                  0.0
                ]
              },
              "displacementFactor": {
                "value": 1.0
              },
              "emissive": {
                "value": [
                  0.0,
                  0.0,
                  0.0
                ]
              },
              "emissiveFactor": {
                "value": 0.0
              },
              "normalMap": {
                "value": [
                  0.0,
                  0.0,
                  0.0
                ]
              },
              "reflection": {
                "value": [
                  0.0,
                  0.0,
                  0.0
                ]
              },
              "reflectionFactor": {
                "value": 1.0
              },
              "shadingModel": "phong",
              "shininess": {
                "value": 2.000000238418579
              },
              "specular": {
                "value": [
                  0.0,
                  0.0,
                  0.0
                ]
              },
              "specularFactor": {
                "value": 0.20000004768371582
              },
              "transparencyFactor": {
                "value": 0.0
              },
              "transparentColor": {
                "value": [
                  1.0,
                  1.0,
                  1.0
                ]
              },
              "vectorDisplacementColor": {
                "value": [
                  0.0,
                  0.0,
                  0.0
                ]
              },
              "vectorDisplacementFactor": {
                "value": 1.0
              }
            },
            "type": "phong"
          }
        }
      },
      "name": "Material #25"
    }
  ],
  "meshes": [
    {
      "name": "JiQi",
      "primitives": [
        {
          "attributes": {
            "COLOR_0": 4,
            "JOINTS_0": 5,
            "NORMAL": 1,
            "POSITION": 0,
            "TEXCOORD_0": 2,
            "TEXCOORD_1": 3,
            "WEIGHTS_0": 6
          },
          "indices": 7,
          "material": 0
        }
      ]
    },
    {
      "name": "XiaoMai",
      "primitives": [
        {
          "attributes": {
            "JOINTS_0": 12,
            "NORMAL": 10,
            "POSITION": 9,
            "TEXCOORD_0": 11,
            "WEIGHTS_0": 13
          },
          "indices": 14,
          "material": 0
        }
      ]
    }
  ],
  "nodes": [
    {
      "mesh": 0,
      "name": "JiQi",
      "skin": 0,
      "translation": [
        -2.668400287628174,
        0.0,
        -3.799675703048706
      ]
    },
    {
      "mesh": 1,
      "name": "XiaoMai",
      "skin": 1,
      "translation": [
        -3.2037341594696045,
        0.21852082014083862,
        -3.7473976612091064
      ]
    },
    {
      "children": [
        3,
        12,
        21,
        22
      ],
      "extras": {
        "FBX-glTF-conv": {
          "skeleton": {
            "skeletonType": "LimbNode"
          }
        }
      },
      "name": "ROOT_xiaomai",
      "translation": [
        -0.14135046303272247,
        9.903464317321777,
        -0.35002031922340393
      ]
    },
    {
      "children": [
        4,
        10,
        11
      ],
      "extras": {
        "FBX-glTF-conv": {
          "skeleton": {
            "skeletonType": "LimbNode"
          }
        }
      },
      "name": "Bone001",
      "rotation": [
        0.7510982155799866,
        0.4307097792625427,
        0.4219173192977905,
        0.2689356207847595
      ],
      "scale": [
        0.9999999403953552,
        1.0,
        1.0
      ],
      "translation": [
        0.4490738809108734,
        1.1102185249328613,
        -0.93634033203125
      ]
    },
    {
      "children": [
        5,
        8,
        9
      ],
      "extras": {
        "FBX-glTF-conv": {
          "skeleton": {
            "skeletonType": "LimbNode"
          }
        }
      },
      "name": "Bone002",
      "rotation": [
        6.72340476626232e-08,
        5.091117571964787e-08,
        0.11500896513462067,
        0.9933644533157349
      ],
      "scale": [
        1.0000001192092896,
        1.0000001192092896,
        1.0
      ],
      "translation": [
        2.1168627738952637,
        6.103515488575795e-07,
        1.5258788721439487e-07
      ]
    },
    {
      "children": [
        6
      ],
      "extras": {
        "FBX-glTF-conv": {
          "skeleton": {
            "skeletonType": "LimbNode"
          }
        }
      },
      "name": "Bone003",
      "rotation": [
        -8.134380280466758e-09,
        7.720059258531364e-09,
        0.08478077501058578,
        0.9963996410369873
      ],
      "translation": [
        2.1498517990112305,
        0.0,
        3.814697322468419e-07
      ]
    },
    {
      "children": [
        7
      ],
      "extras": {
        "FBX-glTF-conv": {
          "skeleton": {
            "skeletonType": "LimbNode"
          }
        }
      },
      "name": "Bone004",
      "rotation": [
        -1.1279560396815214e-08,
        2.432724066636638e-08,
        0.07936583459377289,
        0.996845543384552
      ],
      "scale": [
        0.9999998211860657,
        0.9999998211860657,
        1.0
      ],
      "translation": [
        1.404158353805542,
        -1.220703097715159e-06,
        3.814697322468419e-07
      ]
    },
    {
      "extras": {
        "FBX-glTF-conv": {
          "skeleton": {
            "skeletonType": "LimbNode"
          }
        }
      },
      "name": "Bone027",
      "scale": [
        1.0000001192092896,
        1.0,
        1.0
      ],
      "translation": [
        1.582086205482483,
        -1.220703097715159e-06,
        -2.47955313170678e-06
      ]
    },
    {
      "extras": {
        "FBX-glTF-conv": {
          "skeleton": {
            "skeletonType": "LimbNode"
          }
        }
      },
      "name": "Bone019",
      "rotation": [
        0.16293178498744965,
        -0.5665764212608337,
        -0.05291156470775604,
        0.8060054183006287
      ],
      "scale": [
        0.9999998807907104,
        0.9999999403953552,
        0.9999997615814209
      ],
      "translation": [
        1.8004279136657715,
        0.05716552585363388,
        0.22099117934703827
      ]
    },
    {
      "extras": {
        "FBX-glTF-conv": {
          "skeleton": {
            "skeletonType": "LimbNode"
          }
        }
      },
      "name": "Bone021",
      "rotation": [
        0.3926389515399933,
        0.344353049993515,
        -0.39596056938171387,
        0.7552952170372009
      ],
      "scale": [
        1.0,
        0.9999998211860657,
        0.9999998807907104
      ],
      "translation": [
        1.5423028469085693,
        -0.10702453553676605,
        -0.09751956909894943
      ]
    },
    {
      "extras": {
        "FBX-glTF-conv": {
          "skeleton": {
            "skeletonType": "LimbNode"
          }
        }
      },
      "name": "Bone025",
      "rotation": [
        0.2961456775665283,
        0.30962350964546204,
        -0.5532375574111938,
        0.7143943309783936
      ],
      "scale": [
        1.0,
        1.0,
        0.9999999403953552
      ],
      "translation": [
        1.6264172792434692,
        0.07532043755054474,
        -0.23029904067516327
      ]
    },
    {
      "extras": {
        "FBX-glTF-conv": {
          "skeleton": {
            "skeletonType": "LimbNode"
          }
        }
      },
      "name": "Bone023",
      "rotation": [
        0.6194031834602356,
        -0.5554811358451843,
        0.4156089723110199,
        0.36749085783958435
      ],
      "scale": [
        1.0,
        0.9999998807907104,
        1.0
      ],
      "translation": [
        1.5519872903823853,
        0.049784544855356216,
        0.13856086134910583
      ]
    },
    {
      "children": [
        13,
        19,
        20
      ],
      "extras": {
        "FBX-glTF-conv": {
          "skeleton": {
            "skeletonType": "LimbNode"
          }
        }
      },
      "name": "Bone006",
      "rotation": [
        0.6402462124824524,
        0.3527669906616211,
        0.5378965139389038,
        0.41988998651504517
      ],
      "scale": [
        1.0,
        1.0,
        1.0000001192092896
      ],
      "translation": [
        -0.45586952567100525,
        0.18825621902942657,
        0.9148284792900085
      ]
    },
    {
      "children": [
        14,
        17,
        18
      ],
      "extras": {
        "FBX-glTF-conv": {
          "skeleton": {
            "skeletonType": "LimbNode"
          }
        }
      },
      "name": "Bone007",
      "rotation": [
        -0.006854215636849403,
        0.05527997761964798,
        0.1228489950299263,
        0.9908608794212341
      ],
      "translation": [
        2.22602915763855,
        -3.356933575560106e-06,
        1.5258788721439487e-07
      ]
    },
    {
      "children": [
        15
      ],
      "extras": {
        "FBX-glTF-conv": {
          "skeleton": {
            "skeletonType": "LimbNode"
          }
        }
      },
      "name": "Bone008",
      "rotation": [
        -0.003111745696514845,
        0.06467895954847336,
        0.04795566573739052,
        0.9967483282089233
      ],
      "translation": [
        1.9376318454742432,
        -6.103515488575795e-07,
        -7.629394360719743e-08
      ]
    },
    {
      "children": [
        16
      ],
      "extras": {
        "FBX-glTF-conv": {
          "skeleton": {
            "skeletonType": "LimbNode"
          }
        }
      },
      "name": "Bone009",
      "rotation": [
        -0.0030553380493074656,
        0.10536763072013855,
        0.028823290020227432,
        0.994010865688324
      ],
      "translation": [
        1.5241321325302124,
        0.0,
        7.105427198782324e-17
      ]
    },
    {
      "extras": {
        "FBX-glTF-conv": {
          "skeleton": {
            "skeletonType": "LimbNode"
          }
        }
      },
      "name": "Bone026",
      "scale": [
        1.0000001192092896,
        0.9999997615814209,
        1.0
      ],
      "translation": [
        1.5736072063446045,
        -6.103515488575795e-07,
        -2.7465821403893642e-06
      ]
    },
    {
      "extras": {
        "FBX-glTF-conv": {
          "skeleton": {
            "skeletonType": "LimbNode"
          }
        }
      },
      "name": "Bone015",
      "rotation": [
        -0.6940693259239197,
        -0.15966638922691345,
        -0.26174816489219666,
        0.651354193687439
      ],
      "scale": [
        0.9999999403953552,
        1.0000001192092896,
        1.0000001192092896
      ],
      "translation": [
        1.8246923685073853,
        0.044865723699331284,
        -0.088521808385849
      ]
    },
    {
      "extras": {
        "FBX-glTF-conv": {
          "skeleton": {
            "skeletonType": "LimbNode"
          }
        }
      },
      "name": "Bone013",
      "rotation": [
        -0.6697118878364563,
        0.30715715885162354,
        0.28120991587638855,
        0.6148670315742493
      ],
      "scale": [
        0.9999998807907104,
        1.0000001192092896,
        1.0000001192092896
      ],
      "translation": [
        1.7537720203399658,
        -0.05172363296151161,
        -0.22560791671276093
      ]
    },
    {
      "extras": {
        "FBX-glTF-conv": {
          "skeleton": {
            "skeletonType": "LimbNode"
          }
        }
      },
      "name": "Bone017",
      "rotation": [
        -0.3399382531642914,
        -0.20462213456630707,
        -0.5875769853591919,
        0.7052127718925476
      ],
      "scale": [
        1.0,
        1.0,
        0.9999999403953552
      ],
      "translation": [
        2.332918643951416,
        0.2396734654903412,
        0.21779769659042358
      ]
    },
    {
      "extras": {
        "FBX-glTF-conv": {
          "skeleton": {
            "skeletonType": "LimbNode"
          }
        }
      },
      "name": "Bone011",
      "rotation": [
        -0.6519824266433716,
        0.3944540023803711,
        0.3794373571872711,
        0.5247401595115662
      ],
      "translation": [
        1.9586670398712158,
        0.10095581412315369,
        -0.44533705711364746
      ]
    },
    {
      "extras": {
        "FBX-glTF-conv": {
          "skeleton": {
            "skeletonType": "LimbNode"
          }
        }
      },
      "name": "Bone028",
      "rotation": [
        4.377264062327413e-08,
        4.3772647728701486e-08,
        0.7071068286895752,
        0.7071067094802856
      ],
      "translation": [
        0.10760417580604553,
        -9.903512954711914,
        0.35002192854881287
      ]
    },
    {
      "extras": {
        "FBX-glTF-conv": {
          "skeleton": {
            "skeletonType": "LimbNode"
          }
        }
      },
      "name": "Bone029",
      "rotation": [
        -2.3815918837044592e-07,
        8.812698126803298e-08,
        0.9999956488609314,
        0.0029552376363426447
      ],
      "translation": [
        -5.003286361694336,
        -0.28826048970222473,
        0.35002076625823975
      ]
    }
  ],
  "scenes": [
    {
      "nodes": [
        0,
        1,
        2
      ]
    }
  ],
  "skins": [
    {
      "inverseBindMatrices": 8,
      "joints": [
        22,
        21
      ]
    },
    {
      "inverseBindMatrices": 15,
      "joints": [
        2,
        12,
        20,
        19,
        3,
        13,
        14,
        17,
        18,
        15,
        16,
        10,
        11,
        4,
        9,
        8,
        5,
        6,
        7
      ]
    }
  ]
}