{
  "accessors": [
    {
      "bufferView": 0,
      "componentType": 5126,
      "count": 50,
      "max": [
        0.20000000298023224,
        0.20000000298023224,
        0.20000000298023224
      ],
      "min": [
        -0.20000000298023224,
        -0.20000000298023224,
        0.0
      ],
      "name": "Cylinder001/POSITION",
      "type": "VEC3"
    },
    {
      "bufferView": 0,
      "byteOffset": 12,
      "componentType": 5126,
      "count": 50,
      "name": "Cylinder001/NORMAL",
      "type": "VEC3"
    },
    {
      "bufferView": 0,
      "byteOffset": 24,
      "componentType": 5126,
      "count": 50,
      "name": "Cylinder001/TEXCOORD_0",
      "type": "VEC2"
    },
    {
      "bufferView": 1,
      "componentType": 5123,
      "count": 144,
      "name": "Cylinder001/INDICES",
      "type": "SCALAR"
    }
  ],
  "asset": {
    "copyright": "Copyright (c) 2018-2020 Chukong Technologies Inc.",
    "generator": "FBX-glTF-conv",
    "version": "2.0"
  },
  "bufferViews": [
    {
      "buffer": 0,
      "byteLength": 1600,
      "byteStride": 32,
      "name": "Cylinder001",
      "target": 34962
    },
    {
      "buffer": 0,
      "byteLength": 288,
      "byteOffset": 1600,
      "target": 34963
    }
  ],
  "buffers": [
    {
      "byteLength": 1888,
      "uri": "out.bin"
    }
  ],
  "extras": {
    "FBX-glTF-conv": {
      "animationFrameRate": 30.0,
      "fbxFileHeaderInfo": {
        "creationTimeStamp": {
          "day": 17,
          "hour": 17,
          "millisecond": 421,
          "minute": 46,
          "month": 7,
          "second": 54,
          "year": 2025
        },
        "creator": "FBX SDK/FBX Plugins version 2019.0",
        "sceneInfo": {
          "author": "",
          "comment": "",
          "keywords": "",
          "original": {
            "applicationName": "3ds Max",
            "applicationVendor": "Autodesk",
            "applicationVersion": "2019",
            "fileName": "C:\\Users\\Administrator\\Desktop\\素材\\5\\yuan-huan.FBX"
          },
          "revision": "",
          "subject": "",
          "title": "",
          "url": "D:\\Project\\shamohuocheshouge\\Client\\cocos\\SMHCSG\\assets\\A-texiao\\mech\\yuan-huan.FBX"
        }
      }
    }
  },
  "meshes": [
    {
      "name": "Cylinder001",
      "primitives": [
        {
          "attributes": {
            "NORMAL": 1,
            "POSITION": 0,
            "TEXCOORD_0": 2
          },
          "indices": 3
        }
      ]
    }
  ],
  "nodes": [
    {
      "mesh": 0,
      "name": "Cylinder001",
      "rotation": [
        -0.7071067690849304,
        -0.0,
        0.0,
        0.7071067690849304
      ]
    }
  ],
  "scenes": [
    {
      "nodes": [
        0
      ]
    }
  ]
}