{
  "accessors": [
    {
      "bufferView": 0,
      "componentType": 5126,
      "count": 954,
      "max": [
        1.2898119688034058,
        1.8878936767578125,
        5.284440994262695
      ],
      "min": [
        -1.2898132801055908,
        -1.8878939151763916,
        -0.2786581516265869
      ],
      "name": "KuShu_01_Material37/POSITION",
      "type": "VEC3"
    },
    {
      "bufferView": 0,
      "byteOffset": 12,
      "componentType": 5126,
      "count": 954,
      "name": "KuShu_01_Material37/NORMAL",
      "type": "VEC3"
    },
    {
      "bufferView": 0,
      "byteOffset": 24,
      "componentType": 5126,
      "count": 954,
      "name": "KuShu_01_Material37/TEXCOORD_0",
      "type": "VEC2"
    },
    {
      "bufferView": 0,
      "byteOffset": 32,
      "componentType": 5126,
      "count": 954,
      "name": "KuShu_01_Material37/TEXCOORD_1",
      "type": "VEC2"
    },
    {
      "bufferView": 0,
      "byteOffset": 40,
      "componentType": 5126,
      "count": 954,
      "name": "KuShu_01_Material37/TEXCOORD_2",
      "type": "VEC2"
    },
    {
      "bufferView": 0,
      "byteOffset": 48,
      "componentType": 5126,
      "count": 954,
      "name": "KuShu_01_Material37/TEXCOORD_3",
      "type": "VEC2"
    },
    {
      "bufferView": 1,
      "componentType": 5123,
      "count": 4470,
      "name": "KuShu_01_Material37/INDICES",
      "type": "SCALAR"
    }
  ],
  "asset": {
    "copyright": "Copyright (c) 2018-2020 Chukong Technologies Inc.",
    "generator": "FBX-glTF-conv",
    "version": "2.0"
  },
  "bufferViews": [
    {
      "buffer": 0,
      "byteLength": 53424,
      "byteStride": 56,
      "name": "KuShu_01_Material37",
      "target": 34962
    },
    {
      "buffer": 0,
      "byteLength": 8940,
      "byteOffset": 53424,
      "target": 34963
    }
  ],
  "buffers": [
    {
      "byteLength": 62364,
      "uri": "out.bin"
    }
  ],
  "extras": {
    "FBX-glTF-conv": {
      "animationFrameRate": 30.0,
      "fbxFileHeaderInfo": {
        "creationTimeStamp": {
          "day": 4,
          "hour": 12,
          "millisecond": 357,
          "minute": 44,
          "month": 6,
          "second": 15,
          "year": 2025
        },
        "creator": "FBX SDK/FBX Plugins version 2020.0.1",
        "sceneInfo": {
          "author": "",
          "comment": "",
          "keywords": "",
          "original": {
            "applicationName": "3ds Max",
            "applicationVendor": "Autodesk",
            "applicationVersion": "2021",
            "fileName": "E:\\A_SSD\\素材\\植物\\枯树2\\KuShu_01.fbx"
          },
          "revision": "",
          "subject": "",
          "title": "",
          "url": "D:\\Project\\shamohuocheshouge\\Client\\cocos\\SMHCSG\\assets\\models\\枯树04.fbx"
        }
      }
    }
  },
  "materials": [
    {
      "extras": {
        "FBX-glTF-conv": {
          "raw": {
            "properties": {
              "3dsMax": {
                "value": {
                  "ClassIDa": {
                    "value": 2121471519
                  },
                  "ClassIDb": {
                    "value": 1660373836
                  },
                  "ORIGINAL_MTL": {
                    "value": "PHYSICAL_MTL"
                  },
                  "Parameters": {
                    "value": {
                      "aniso_angle_map_on": {
                        "value": true
                      },
                      "aniso_channel": {
                        "value": 0
                      },
                      "aniso_mode": {
                        "value": 0
                      },
                      "anisoangle": {
                        "value": 0.0
                      },
                      "anisotropy": {
                        "value": 0.0
                      },
                      "anisotropy_map_on": {
                        "value": true
                      },
                      "base_color": {
                        "value": [
                          0.800000011920929,
                          0.800000011920929,
                          0.800000011920929,
                          1.0
                        ]
                      },
                      "base_color_map_on": {
                        "value": true
                      },
                      "base_weight": {
                        "value": 1.0
                      },
                      "base_weight_map_on": {
                        "value": true
                      },
                      "brdf_curve": {
                        "value": 5.0
                      },
                      "brdf_high": {
                        "value": 1.0
                      },
                      "brdf_low": {
                        "value": 0.05000000074505806
                      },
                      "brdf_mode": {
                        "value": true
                      },
                      "coat_affect_color": {
                        "value": 0.5
                      },
                      "coat_affect_roughness": {
                        "value": 0.5
                      },
                      "coat_color": {
                        "value": [
                          1.0,
                          1.0,
                          1.0,
                          1.0
                        ]
                      },
                      "coat_color_map_on": {
                        "value": true
                      },
                      "coat_ior": {
                        "value": 1.5199999809265137
                      },
                      "coat_map_on": {
                        "value": true
                      },
                      "coat_rough_map_on": {
                        "value": true
                      },
                      "coat_roughness": {
                        "value": 0.0
                      },
                      "coat_roughness_inv": {
                        "value": false
                      },
                      "coating": {
                        "value": 0.0
                      },
                      "cutout_map_on": {
                        "value": true
                      },
                      "diff_rough_map_on": {
                        "value": true
                      },
                      "diff_roughness": {
                        "value": 0.0
                      },
                      "displacement_map_amt": {
                        "value": 1.0
                      },
                      "displacement_map_on": {
                        "value": true
                      },
                      "emission": {
                        "value": 1.0
                      },
                      "emission_map_on": {
                        "value": true
                      },
                      "emit_color": {
                        "value": [
                          0.0,
                          0.0,
                          0.0,
                          1.0
                        ]
                      },
                      "emit_color_map_on": {
                        "value": true
                      },
                      "emit_kelvin": {
                        "value": 6500.0
                      },
                      "emit_luminance": {
                        "value": 1500.0
                      },
                      "material_mode": {
                        "value": 0
                      },
                      "metalness": {
                        "value": 0.0
                      },
                      "metalness_map_on": {
                        "value": true
                      },
                      "refl_color": {
                        "value": [
                          0.20000000298023224,
                          0.20000000298023224,
                          0.20000000298023224,
                          1.0
                        ]
                      },
                      "refl_color_map_on": {
                        "value": true
                      },
                      "reflectivity": {
                        "value": 1.0
                      },
                      "reflectivity_map_on": {
                        "value": true
                      },
                      "roughness": {
                        "value": 0.5678071975708008
                      },
                      "roughness_inv": {
                        "value": false
                      },
                      "roughness_map_on": {
                        "value": true
                      },
                      "scattering": {
                        "value": 0.0
                      },
                      "scattering_map_on": {
                        "value": true
                      },
                      "sss_color": {
                        "value": [
                          1.0,
                          1.0,
                          1.0,
                          1.0
                        ]
                      },
                      "sss_color_map_on": {
                        "value": true
                      },
                      "sss_depth": {
                        "value": 10.0
                      },
                      "sss_scale": {
                        "value": 1.0
                      },
                      "sss_scale_map_on": {
                        "value": true
                      },
                      "sss_scatter_color": {
                        "value": [
                          100.0,
                          50.0,
                          25.0,
                          1.0
                        ]
                      },
                      "thin_walled": {
                        "value": false
                      },
                      "trans_color": {
                        "value": [
                          0.0,
                          0.0,
                          0.0,
                          1.0
                        ]
                      },
                      "trans_color_map_on": {
                        "value": true
                      },
                      "trans_depth": {
                        "value": 0.0
                      },
                      "trans_ior": {
                        "value": 1.5199999809265137
                      },
                      "trans_ior_map_on": {
                        "value": true
                      },
                      "trans_rough_map_on": {
                        "value": true
                      },
                      "trans_roughness": {
                        "value": 0.0
                      },
                      "trans_roughness_inv": {
                        "value": false
                      },
                      "trans_roughness_lock": {
                        "value": true
                      },
                      "transparency": {
                        "value": 0.0
                      },
                      "transparency_map_on": {
                        "value": true
                      }
                    }
                  },
                  "SuperClassID": {
                    "value": 3072
                  }
                }
              },
              "AmbientColor": {
                "value": [
                  0.800000011920929,
                  0.800000011920929,
                  0.800000011920929
                ]
              },
              "DiffuseColor": {
                "value": [
                  0.800000011920929,
                  0.800000011920929,
                  0.800000011920929
                ]
              },
              "EmissiveColor": {
                "value": [
                  0.0,
                  0.0,
                  0.0
                ]
              },
              "EmissiveFactor": {
                "value": 0.0
              },
              "MultiLayer": {
                "value": false
              },
              "ShadingModel": {
                "value": "unknown"
              },
              "ShininessExponent": {
                "value": 19.999998092651367
              },
              "SpecularColor": {
                "value": [
                  0.20000000298023224,
                  0.20000000298023224,
                  0.20000000298023224
                ]
              },
              "SpecularFactor": {
                "value": 0.8643856048583984
              },
              "TransparencyFactor": {
                "value": 0.0
              }
            }
          }
        }
      },
      "name": "jinshu13_37"
    }
  ],
  "meshes": [
    {
      "name": "KuShu_01",
      "primitives": [
        {
          "attributes": {
            "NORMAL": 1,
            "POSITION": 0,
            "TEXCOORD_0": 2,
            "TEXCOORD_1": 3,
            "TEXCOORD_2": 4,
            "TEXCOORD_3": 5
          },
          "indices": 6,
          "material": 0
        }
      ]
    }
  ],
  "nodes": [
    {
      "mesh": 0,
      "name": "KuShu_01",
      "rotation": [
        -0.7071067690849304,
        -0.0,
        0.0,
        0.7071067690849304
      ],
      "translation": [
        0.0,
        0.0,
        -1.0940486561139551e-07
      ]
    }
  ],
  "scenes": [
    {
      "nodes": [
        0
      ]
    }
  ]
}