{
  "accessors": [
    {
      "bufferView": 0,
      "componentType": 5126,
      "count": 3995,
      "max": [
        6.44155740737915,
        13.788178443908691,
        6.583971977233887
      ],
      "min": [
        -6.017202377319336,
        -0.4800284206867218,
        -6.172025680541992
      ],
      "name": "DianTaShengJi/POSITION",
      "type": "VEC3"
    },
    {
      "bufferView": 0,
      "byteOffset": 12,
      "componentType": 5126,
      "count": 3995,
      "name": "DianTaShengJi/NORMAL",
      "type": "VEC3"
    },
    {
      "bufferView": 0,
      "byteOffset": 24,
      "componentType": 5126,
      "count": 3995,
      "name": "DianTaShengJi/TEXCOORD_0",
      "type": "VEC2"
    },
    {
      "bufferView": 0,
      "byteOffset": 32,
      "componentType": 5126,
      "count": 3995,
      "name": "DianTaShengJi/TEXCOORD_1",
      "type": "VEC2"
    },
    {
      "bufferView": 0,
      "byteOffset": 40,
      "componentType": 5126,
      "count": 3995,
      "name": "DianTaShengJi/TEXCOORD_2",
      "type": "VEC2"
    },
    {
      "bufferView": 1,
      "componentType": 5123,
      "count": 9231,
      "name": "DianTaShengJi/INDICES",
      "type": "SCALAR"
    }
  ],
  "asset": {
    "copyright": "Copyright (c) 2018-2020 Chukong Technologies Inc.",
    "generator": "FBX-glTF-conv",
    "version": "2.0"
  },
  "bufferViews": [
    {
      "buffer": 0,
      "byteLength": 191760,
      "byteStride": 48,
      "name": "DianTaShengJi",
      "target": 34962
    },
    {
      "buffer": 0,
      "byteLength": 18462,
      "byteOffset": 191760,
      "target": 34963
    }
  ],
  "buffers": [
    {
      "byteLength": 210222,
      "uri": "out.bin"
    }
  ],
  "extras": {
    "FBX-glTF-conv": {
      "animationFrameRate": 30.0,
      "fbxFileHeaderInfo": {
        "creationTimeStamp": {
          "day": 9,
          "hour": 18,
          "millisecond": 541,
          "minute": 22,
          "month": 6,
          "second": 4,
          "year": 2025
        },
        "creator": "FBX SDK/FBX Plugins version 2016.0",
        "sceneInfo": {
          "author": "",
          "comment": "",
          "keywords": "",
          "original": {
            "applicationName": "3ds Max",
            "applicationVendor": "Autodesk",
            "applicationVersion": "2014",
            "fileName": "E:\\Work_SVN\\morinongchangzhu\\Client\\Assets\\ART\\Scenes\\Modes\\DianTaShengJi.FBX"
          },
          "revision": "",
          "subject": "",
          "title": "",
          "url": "D:\\Project\\shamohuocheshouge\\Client\\cocos\\SMHCSG\\assets\\沙漠火车收割\\Models\\电塔.FBX"
        }
      }
    }
  },
  "images": [
    {
      "extras": {
        "FBX-glTF-conv": {
          "fileName": "D:\\Work_WeChat\\WeChat Files\\wxid_xsv27cifw85n22\\FileStorage\\File\\2025-05\\Gai\\Gai\\Albedo.png",
          "relativeFileName": "D:\\Work_WeChat\\WeChat Files\\wxid_xsv27cifw85n22\\FileStorage\\File\\2025-05\\Gai\\Gai\\Albedo.png"
        }
      },
      "name": "Map #2",
      "uri": "data:image/png;base64,"
    }
  ],
  "materials": [
    {
      "extras": {
        "FBX-glTF-conv": {
          "raw": {
            "properties": {
              "ambient": {
                "value": [
                  0.5879999995231628,
                  0.5879999995231628,
                  0.5879999995231628
                ]
              },
              "ambientFactor": {
                "value": 0.0
              },
              "bump": {
                "value": [
                  0.0,
                  0.0,
                  0.0
                ]
              },
              "bumpFactor": {
                "value": 1.0
              },
              "diffuse": {
                "texture": {
                  "index": 0
                },
                "value": [
                  0.5879999995231628,
                  0.5879999995231628,
                  0.5879999995231628
                ]
              },
              "diffuseFactor": {
                "value": 1.0
              },
              "displacementColor": {
                "value": [
                  0.0,
                  0.0,
                  0.0
                ]
              },
              "displacementFactor": {
                "value": 1.0
              },
              "emissive": {
                "value": [
                  0.0,
                  0.0,
                  0.0
                ]
              },
              "emissiveFactor": {
                "value": 0.0
              },
              "normalMap": {
                "value": [
                  0.0,
                  0.0,
                  0.0
                ]
              },
              "reflection": {
                "value": [
                  0.0,
                  0.0,
                  0.0
                ]
              },
              "reflectionFactor": {
                "value": 1.0
              },
              "shadingModel": "phong",
              "shininess": {
                "value": 2.0
              },
              "specular": {
                "value": [
                  0.8999999761581421,
                  0.8999999761581421,
                  0.8999999761581421
                ]
              },
              "specularFactor": {
                "value": 0.0
              },
              "transparencyFactor": {
                "value": 0.0
              },
              "transparentColor": {
                "value": [
                  1.0,
                  1.0,
                  1.0
                ]
              },
              "vectorDisplacementColor": {
                "value": [
                  0.0,
                  0.0,
                  0.0
                ]
              },
              "vectorDisplacementFactor": {
                "value": 1.0
              }
            },
            "type": "phong"
          }
        }
      },
      "name": "Material #26"
    }
  ],
  "meshes": [
    {
      "name": "DianTaShengJi",
      "primitives": [
        {
          "attributes": {
            "NORMAL": 1,
            "POSITION": 0,
            "TEXCOORD_0": 2,
            "TEXCOORD_1": 3,
            "TEXCOORD_2": 4
          },
          "indices": 5,
          "material": 0
        }
      ]
    }
  ],
  "nodes": [
    {
      "mesh": 0,
      "name": "DianTaShengJi"
    }
  ],
  "samplers": [
    {}
  ],
  "scenes": [
    {
      "nodes": [
        0
      ]
    }
  ],
  "textures": [
    {
      "name": "Map #2",
      "sampler": 0,
      "source": 0
    }
  ]
}