{
  "accessors": [
    {
      "bufferView": 0,
      "componentType": 5126,
      "count": 2928,
      "max": [
        1.4389636516571045,
        2.877063035964966,
        3.0715625286102295
      ],
      "min": [
        -1.4389636516571045,
        -4.681816577911377,
        -6.103515488575795e-07
      ],
      "name": "货运列车2_Material0/POSITION",
      "type": "VEC3"
    },
    {
      "bufferView": 0,
      "byteOffset": 12,
      "componentType": 5126,
      "count": 2928,
      "name": "货运列车2_Material0/NORMAL",
      "type": "VEC3"
    },
    {
      "bufferView": 0,
      "byteOffset": 24,
      "componentType": 5126,
      "count": 2928,
      "name": "货运列车2_Material0/TEXCOORD_0",
      "type": "VEC2"
    },
    {
      "bufferView": 0,
      "byteOffset": 32,
      "componentType": 5126,
      "count": 2928,
      "name": "货运列车2_Material0/TEXCOORD_1",
      "type": "VEC2"
    },
    {
      "bufferView": 0,
      "byteOffset": 40,
      "componentType": 5126,
      "count": 2928,
      "name": "货运列车2_Material0/TEXCOORD_2",
      "type": "VEC2"
    },
    {
      "bufferView": 0,
      "byteOffset": 48,
      "componentType": 5126,
      "count": 2928,
      "name": "货运列车2_Material0/TEXCOORD_3",
      "type": "VEC2"
    },
    {
      "bufferView": 0,
      "byteOffset": 56,
      "componentType": 5126,
      "count": 2928,
      "name": "货运列车2_Material0/TEXCOORD_4",
      "type": "VEC2"
    },
    {
      "bufferView": 1,
      "componentType": 5123,
      "count": 5724,
      "name": "货运列车2_Material0/INDICES",
      "type": "SCALAR"
    },
    {
      "bufferView": 2,
      "componentType": 5126,
      "count": 164,
      "max": [
        1.6402338743209839,
        2.705192804336548,
        3.1366817951202393
      ],
      "min": [
        -1.6402338743209839,
        -4.400295734405518,
        1.5829321146011353
      ],
      "name": "货运列车2_Material0/POSITION",
      "type": "VEC3"
    },
    {
      "bufferView": 2,
      "byteOffset": 12,
      "componentType": 5126,
      "count": 164,
      "name": "货运列车2_Material0/NORMAL",
      "type": "VEC3"
    },
    {
      "bufferView": 2,
      "byteOffset": 24,
      "componentType": 5126,
      "count": 164,
      "name": "货运列车2_Material0/TEXCOORD_0",
      "type": "VEC2"
    },
    {
      "bufferView": 2,
      "byteOffset": 32,
      "componentType": 5126,
      "count": 164,
      "name": "货运列车2_Material0/TEXCOORD_1",
      "type": "VEC2"
    },
    {
      "bufferView": 2,
      "byteOffset": 40,
      "componentType": 5126,
      "count": 164,
      "name": "货运列车2_Material0/TEXCOORD_2",
      "type": "VEC2"
    },
    {
      "bufferView": 2,
      "byteOffset": 48,
      "componentType": 5126,
      "count": 164,
      "name": "货运列车2_Material0/TEXCOORD_3",
      "type": "VEC2"
    },
    {
      "bufferView": 2,
      "byteOffset": 56,
      "componentType": 5126,
      "count": 164,
      "name": "货运列车2_Material0/TEXCOORD_4",
      "type": "VEC2"
    },
    {
      "bufferView": 3,
      "componentType": 5123,
      "count": 312,
      "name": "货运列车2_Material0/INDICES",
      "type": "SCALAR"
    },
    {
      "bufferView": 4,
      "componentType": 5126,
      "count": 192,
      "max": [
        1.6002517938613892,
        2.5926036834716797,
        3.3001644611358643
      ],
      "min": [
        -1.6002519130706787,
        -4.276015758514404,
        2.780571222305298
      ],
      "name": "货运列车2_Material0/POSITION",
      "type": "VEC3"
    },
    {
      "bufferView": 4,
      "byteOffset": 12,
      "componentType": 5126,
      "count": 192,
      "name": "货运列车2_Material0/NORMAL",
      "type": "VEC3"
    },
    {
      "bufferView": 4,
      "byteOffset": 24,
      "componentType": 5126,
      "count": 192,
      "name": "货运列车2_Material0/TEXCOORD_0",
      "type": "VEC2"
    },
    {
      "bufferView": 4,
      "byteOffset": 32,
      "componentType": 5126,
      "count": 192,
      "name": "货运列车2_Material0/TEXCOORD_1",
      "type": "VEC2"
    },
    {
      "bufferView": 4,
      "byteOffset": 40,
      "componentType": 5126,
      "count": 192,
      "name": "货运列车2_Material0/TEXCOORD_2",
      "type": "VEC2"
    },
    {
      "bufferView": 4,
      "byteOffset": 48,
      "componentType": 5126,
      "count": 192,
      "name": "货运列车2_Material0/TEXCOORD_3",
      "type": "VEC2"
    },
    {
      "bufferView": 4,
      "byteOffset": 56,
      "componentType": 5126,
      "count": 192,
      "name": "货运列车2_Material0/TEXCOORD_4",
      "type": "VEC2"
    },
    {
      "bufferView": 5,
      "componentType": 5123,
      "count": 414,
      "name": "货运列车2_Material0/INDICES",
      "type": "SCALAR"
    },
    {
      "bufferView": 6,
      "componentType": 5126,
      "count": 56,
      "max": [
        1.3704791069030762,
        2.3688671588897705,
        3.2171967029571533
      ],
      "min": [
        -1.3704791069030762,
        -4.0636210441589355,
        1.7544348239898682
      ],
      "name": "货运列车2_Material0/POSITION",
      "type": "VEC3"
    },
    {
      "bufferView": 6,
      "byteOffset": 12,
      "componentType": 5126,
      "count": 56,
      "name": "货运列车2_Material0/NORMAL",
      "type": "VEC3"
    },
    {
      "bufferView": 6,
      "byteOffset": 24,
      "componentType": 5126,
      "count": 56,
      "name": "货运列车2_Material0/TEXCOORD_0",
      "type": "VEC2"
    },
    {
      "bufferView": 6,
      "byteOffset": 32,
      "componentType": 5126,
      "count": 56,
      "name": "货运列车2_Material0/TEXCOORD_1",
      "type": "VEC2"
    },
    {
      "bufferView": 6,
      "byteOffset": 40,
      "componentType": 5126,
      "count": 56,
      "name": "货运列车2_Material0/TEXCOORD_2",
      "type": "VEC2"
    },
    {
      "bufferView": 6,
      "byteOffset": 48,
      "componentType": 5126,
      "count": 56,
      "name": "货运列车2_Material0/TEXCOORD_3",
      "type": "VEC2"
    },
    {
      "bufferView": 6,
      "byteOffset": 56,
      "componentType": 5126,
      "count": 56,
      "name": "货运列车2_Material0/TEXCOORD_4",
      "type": "VEC2"
    },
    {
      "bufferView": 7,
      "componentType": 5123,
      "count": 96,
      "name": "货运列车2_Material0/INDICES",
      "type": "SCALAR"
    }
  ],
  "asset": {
    "copyright": "Copyright (c) 2018-2020 Chukong Technologies Inc.",
    "generator": "FBX-glTF-conv",
    "version": "2.0"
  },
  "bufferViews": [
    {
      "buffer": 0,
      "byteLength": 187392,
      "byteStride": 64,
      "name": "货运列车2_Material0",
      "target": 34962
    },
    {
      "buffer": 0,
      "byteLength": 11448,
      "byteOffset": 187392,
      "target": 34963
    },
    {
      "buffer": 0,
      "byteLength": 10496,
      "byteOffset": 198840,
      "byteStride": 64,
      "name": "货运列车2_Material0",
      "target": 34962
    },
    {
      "buffer": 0,
      "byteLength": 624,
      "byteOffset": 209336,
      "target": 34963
    },
    {
      "buffer": 0,
      "byteLength": 12288,
      "byteOffset": 209960,
      "byteStride": 64,
      "name": "货运列车2_Material0",
      "target": 34962
    },
    {
      "buffer": 0,
      "byteLength": 828,
      "byteOffset": 222248,
      "target": 34963
    },
    {
      "buffer": 0,
      "byteLength": 3584,
      "byteOffset": 223076,
      "byteStride": 64,
      "name": "货运列车2_Material0",
      "target": 34962
    },
    {
      "buffer": 0,
      "byteLength": 192,
      "byteOffset": 226660,
      "target": 34963
    }
  ],
  "buffers": [
    {
      "byteLength": 226852,
      "uri": "out.bin"
    }
  ],
  "extras": {
    "FBX-glTF-conv": {
      "animationFrameRate": 30.0,
      "fbxFileHeaderInfo": {
        "creationTimeStamp": {
          "day": 4,
          "hour": 23,
          "millisecond": 407,
          "minute": 36,
          "month": 11,
          "second": 4,
          "year": 2024
        },
        "creator": "FBX SDK/FBX Plugins version 2020.2",
        "sceneInfo": {
          "author": "",
          "comment": "",
          "keywords": "",
          "original": {
            "applicationName": "Unreal Engine",
            "applicationVendor": "Epic Games",
            "applicationVersion": "5.3.2-29314046+++UE5+Release-5.3",
            "fileName": ""
          },
          "revision": "",
          "subject": "Export FBX meshes from Unreal",
          "title": "Unreal FBX Exporter",
          "url": "D:\\Project\\shamohuocheshouge\\Client\\cocos\\SMHCSG\\assets\\沙漠火车收割\\Models\\货运列车_拖车.fbx"
        }
      }
    }
  },
  "materials": [
    {
      "extras": {
        "FBX-glTF-conv": {
          "raw": {
            "properties": {
              "ambient": {
                "value": [
                  0.0,
                  0.0,
                  0.0
                ]
              },
              "ambientFactor": {
                "value": 1.0
              },
              "bump": {
                "value": [
                  0.0,
                  0.0,
                  0.0
                ]
              },
              "bumpFactor": {
                "value": 1.0
              },
              "diffuse": {
                "value": [
                  0.2158605009317398,
                  0.2158605009317398,
                  0.2158605009317398
                ]
              },
              "diffuseFactor": {
                "value": 1.0
              },
              "displacementColor": {
                "value": [
                  0.0,
                  0.0,
                  0.0
                ]
              },
              "displacementFactor": {
                "value": 1.0
              },
              "emissive": {
                "value": [
                  0.0,
                  0.0,
                  0.0
                ]
              },
              "emissiveFactor": {
                "value": 1.0
              },
              "normalMap": {
                "value": [
                  0.0,
                  0.0,
                  0.0
                ]
              },
              "reflection": {
                "value": [
                  0.0,
                  0.0,
                  0.0
                ]
              },
              "reflectionFactor": {
                "value": 1.0
              },
              "shadingModel": "Phong",
              "shininess": {
                "value": 20.0
              },
              "specular": {
                "value": [
                  0.2,
                  0.2,
                  0.2
                ]
              },
              "specularFactor": {
                "value": 1.0
              },
              "transparencyFactor": {
                "value": 1.0
              },
              "transparentColor": {
                "value": [
                  0.0,
                  0.0,
                  0.0
                ]
              },
              "vectorDisplacementColor": {
                "value": [
                  0.0,
                  0.0,
                  0.0
                ]
              },
              "vectorDisplacementFactor": {
                "value": 1.0
              }
            },
            "type": "phong"
          }
        }
      },
      "name": "M_火车2"
    }
  ],
  "meshes": [
    {
      "name": "货运列车2",
      "primitives": [
        {
          "attributes": {
            "NORMAL": 1,
            "POSITION": 0,
            "TEXCOORD_0": 2,
            "TEXCOORD_1": 3,
            "TEXCOORD_2": 4,
            "TEXCOORD_3": 5,
            "TEXCOORD_4": 6
          },
          "indices": 7,
          "material": 0
        },
        {
          "attributes": {
            "NORMAL": 9,
            "POSITION": 8,
            "TEXCOORD_0": 10,
            "TEXCOORD_1": 11,
            "TEXCOORD_2": 12,
            "TEXCOORD_3": 13,
            "TEXCOORD_4": 14
          },
          "indices": 15,
          "material": 0
        },
        {
          "attributes": {
            "NORMAL": 17,
            "POSITION": 16,
            "TEXCOORD_0": 18,
            "TEXCOORD_1": 19,
            "TEXCOORD_2": 20,
            "TEXCOORD_3": 21,
            "TEXCOORD_4": 22
          },
          "indices": 23,
          "material": 0
        },
        {
          "attributes": {
            "NORMAL": 25,
            "POSITION": 24,
            "TEXCOORD_0": 26,
            "TEXCOORD_1": 27,
            "TEXCOORD_2": 28,
            "TEXCOORD_3": 29,
            "TEXCOORD_4": 30
          },
          "indices": 31,
          "material": 0
        }
      ]
    }
  ],
  "nodes": [
    {
      "mesh": 0,
      "name": "货运列车2",
      "rotation": [
        -0.7071067690849304,
        -0.0,
        0.0,
        0.7071067690849304
      ]
    }
  ],
  "scenes": [
    {
      "nodes": [
        0
      ]
    }
  ]
}