{
  "accessors": [
    {
      "bufferView": 0,
      "componentType": 5126,
      "count": 623,
      "max": [
        1.6565170288085938,
        2.1857290267944336,
        0.0
      ],
      "min": [
        -1.6446408033370972,
        -2.476388692855835,
        0.0
      ],
      "name": "fbx_jupian01/POSITION",
      "type": "VEC3"
    },
    {
      "bufferView": 0,
      "byteOffset": 12,
      "componentType": 5126,
      "count": 623,
      "name": "fbx_jupian01/NORMAL",
      "type": "VEC3"
    },
    {
      "bufferView": 0,
      "byteOffset": 24,
      "componentType": 5126,
      "count": 623,
      "name": "fbx_jupian01/TEXCOORD_0",
      "type": "VEC2"
    },
    {
      "bufferView": 1,
      "componentType": 5123,
      "count": 3168,
      "name": "fbx_jupian01/INDICES",
      "type": "SCALAR"
    }
  ],
  "asset": {
    "copyright": "Copyright (c) 2018-2020 Chukong Technologies Inc.",
    "generator": "FBX-glTF-conv",
    "version": "2.0"
  },
  "bufferViews": [
    {
      "buffer": 0,
      "byteLength": 19936,
      "byteStride": 32,
      "name": "fbx_jupian01",
      "target": 34962
    },
    {
      "buffer": 0,
      "byteLength": 6336,
      "byteOffset": 19936,
      "target": 34963
    }
  ],
  "buffers": [
    {
      "byteLength": 26272,
      "uri": "out.bin"
    }
  ],
  "extras": {
    "FBX-glTF-conv": {
      "animationFrameRate": 30.0,
      "fbxFileHeaderInfo": {
        "creationTimeStamp": {
          "day": 19,
          "hour": 15,
          "millisecond": 833,
          "minute": 23,
          "month": 3,
          "second": 44,
          "year": 2026
        },
        "creator": "FBX SDK/FBX Plugins version 2020.3.5",
        "sceneInfo": {
          "author": "",
          "comment": "",
          "keywords": "",
          "original": {
            "applicationName": "3ds Max",
            "applicationVendor": "Autodesk",
            "applicationVersion": "2025",
            "fileName": "C:\\Users\\30735\\Desktop\\fbx_jupian01.fbx"
          },
          "revision": "",
          "subject": "",
          "title": "",
          "url": "D:\\Project\\shamohuocheshouge\\Client\\cocos\\SMHCSG\\assets\\cocos_effect\\Models\\fbx_jupian01.fbx"
        }
      }
    }
  },
  "meshes": [
    {
      "name": "fbx_jupian01",
      "primitives": [
        {
          "attributes": {
            "NORMAL": 1,
            "POSITION": 0,
            "TEXCOORD_0": 2
          },
          "indices": 3
        }
      ]
    }
  ],
  "nodes": [
    {
      "mesh": 0,
      "name": "fbx_jupian01",
      "rotation": [
        -0.7071067690849304,
        -0.0,
        0.0,
        0.7071067690849304
      ],
      "translation": [
        0.0,
        0.0,
        2.2153172492980957
      ]
    }
  ],
  "scenes": [
    {
      "nodes": [
        0
      ]
    }
  ]
}