{
  "accessors": [
    {
      "bufferView": 0,
      "componentType": 5126,
      "count": 690,
      "max": [
        2.833810329437256,
        2.9561192989349365,
        2.0399563312530518
      ],
      "min": [
        -2.7519571781158447,
        -0.6342922449111938,
        -2.028316020965576
      ],
      "name": "XiaoMai_1/POSITION",
      "type": "VEC3"
    },
    {
      "bufferView": 0,
      "byteOffset": 12,
      "componentType": 5126,
      "count": 690,
      "name": "XiaoMai_1/NORMAL",
      "type": "VEC3"
    },
    {
      "bufferView": 0,
      "byteOffset": 24,
      "componentType": 5126,
      "count": 690,
      "name": "XiaoMai_1/TEXCOORD_0",
      "type": "VEC2"
    },
    {
      "bufferView": 1,
      "componentType": 5123,
      "count": 690,
      "name": "XiaoMai_1/INDICES",
      "type": "SCALAR"
    }
  ],
  "asset": {
    "copyright": "Copyright (c) 2018-2020 Chukong Technologies Inc.",
    "generator": "FBX-glTF-conv",
    "version": "2.0"
  },
  "bufferViews": [
    {
      "buffer": 0,
      "byteLength": 22080,
      "byteStride": 32,
      "name": "XiaoMai_1",
      "target": 34962
    },
    {
      "buffer": 0,
      "byteLength": 1380,
      "byteOffset": 22080,
      "target": 34963
    }
  ],
  "buffers": [
    {
      "byteLength": 23460,
      "uri": "out.bin"
    }
  ],
  "extras": {
    "FBX-glTF-conv": {
      "animationFrameRate": 30.0,
      "fbxFileHeaderInfo": {
        "creationTimeStamp": {
          "day": 25,
          "hour": 16,
          "millisecond": 751,
          "minute": 42,
          "month": 6,
          "second": 7,
          "year": 2025
        },
        "creator": "FBX SDK/FBX Plugins version 2016.0",
        "sceneInfo": {
          "author": "",
          "comment": "",
          "keywords": "",
          "original": {
            "applicationName": "3ds Max",
            "applicationVendor": "Autodesk",
            "applicationVersion": "2014",
            "fileName": "C:\\Users\\a\\Desktop\\XiaoMai_1.FBX"
          },
          "revision": "",
          "subject": "",
          "title": "",
          "url": "D:\\Project\\shamohuocheshouge\\Client\\cocos\\SMHCSG\\assets\\models\\小麦01.FBX"
        }
      }
    }
  },
  "images": [
    {
      "extras": {
        "FBX-glTF-conv": {
          "fileName": "C:\\Users\\a\\Desktop\\XiaoMai_1.tga",
          "relativeFileName": "XiaoMai_1.tga"
        }
      },
      "name": "Map #0",
      "uri": "data:image/png;base64,"
    },
    {
      "extras": {
        "FBX-glTF-conv": {
          "fileName": "C:\\Users\\a\\Desktop\\XiaoMai_1.tga",
          "relativeFileName": "XiaoMai_1.tga"
        }
      },
      "name": "Map #1",
      "uri": "data:image/png;base64,"
    }
  ],
  "materials": [
    {
      "extras": {
        "FBX-glTF-conv": {
          "raw": {
            "properties": {
              "ambient": {
                "value": [
                  0.5879999995231628,
                  0.5879999995231628,
                  0.5879999995231628
                ]
              },
              "ambientFactor": {
                "value": 0.0
              },
              "bump": {
                "value": [
                  0.0,
                  0.0,
                  0.0
                ]
              },
              "bumpFactor": {
                "value": 1.0
              },
              "diffuse": {
                "texture": {
                  "index": 0
                },
                "value": [
                  0.5879999995231628,
                  0.5879999995231628,
                  0.5879999995231628
                ]
              },
              "diffuseFactor": {
                "value": 1.0
              },
              "displacementColor": {
                "value": [
                  0.0,
                  0.0,
                  0.0
                ]
              },
              "displacementFactor": {
                "value": 1.0
              },
              "emissive": {
                "value": [
                  0.0,
                  0.0,
                  0.0
                ]
              },
              "emissiveFactor": {
                "value": 0.0
              },
              "normalMap": {
                "value": [
                  0.0,
                  0.0,
                  0.0
                ]
              },
              "reflection": {
                "value": [
                  0.0,
                  0.0,
                  0.0
                ]
              },
              "reflectionFactor": {
                "value": 1.0
              },
              "shadingModel": "phong",
              "shininess": {
                "value": 2.0
              },
              "specular": {
                "value": [
                  0.8999999761581421,
                  0.8999999761581421,
                  0.8999999761581421
                ]
              },
              "specularFactor": {
                "value": 0.0
              },
              "transparencyFactor": {
                "value": 0.0
              },
              "transparentColor": {
                "texture": {
                  "index": 1
                },
                "value": [
                  1.0,
                  1.0,
                  1.0
                ]
              },
              "vectorDisplacementColor": {
                "value": [
                  0.0,
                  0.0,
                  0.0
                ]
              },
              "vectorDisplacementFactor": {
                "value": 1.0
              }
            },
            "type": "phong"
          }
        }
      },
      "name": "Material #2"
    }
  ],
  "meshes": [
    {
      "name": "XiaoMai_1",
      "primitives": [
        {
          "attributes": {
            "NORMAL": 1,
            "POSITION": 0,
            "TEXCOORD_0": 2
          },
          "indices": 3,
          "material": 0
        }
      ]
    }
  ],
  "nodes": [
    {
      "mesh": 0,
      "name": "XiaoMai_1"
    }
  ],
  "samplers": [
    {}
  ],
  "scenes": [
    {
      "nodes": [
        0
      ]
    }
  ],
  "textures": [
    {
      "name": "Map #0",
      "sampler": 0,
      "source": 0
    },
    {
      "name": "Map #1",
      "sampler": 0,
      "source": 1
    }
  ]
}