{
  "accessors": [
    {
      "bufferView": 0,
      "componentType": 5126,
      "count": 504,
      "max": [
        0.9596993327140808,
        0.5143439769744873,
        0.4891706705093384
      ],
      "min": [
        -0.9596993327140808,
        -0.5143440365791321,
        -0.4891706705093384
      ],
      "name": "Lun_02/POSITION",
      "type": "VEC3"
    },
    {
      "bufferView": 0,
      "byteOffset": 12,
      "componentType": 5126,
      "count": 504,
      "name": "Lun_02/NORMAL",
      "type": "VEC3"
    },
    {
      "bufferView": 0,
      "byteOffset": 24,
      "componentType": 5126,
      "count": 504,
      "name": "Lun_02/TEXCOORD_0",
      "type": "VEC2"
    },
    {
      "bufferView": 0,
      "byteOffset": 32,
      "componentType": 5126,
      "count": 504,
      "name": "Lun_02/TEXCOORD_1",
      "type": "VEC2"
    },
    {
      "bufferView": 0,
      "byteOffset": 40,
      "componentType": 5126,
      "count": 504,
      "name": "Lun_02/TEXCOORD_2",
      "type": "VEC2"
    },
    {
      "bufferView": 0,
      "byteOffset": 48,
      "componentType": 5126,
      "count": 504,
      "name": "Lun_02/TEXCOORD_3",
      "type": "VEC2"
    },
    {
      "bufferView": 0,
      "byteOffset": 56,
      "componentType": 5126,
      "count": 504,
      "name": "Lun_02/TEXCOORD_4",
      "type": "VEC2"
    },
    {
      "bufferView": 1,
      "componentType": 5123,
      "count": 1080,
      "name": "Lun_02/INDICES",
      "type": "SCALAR"
    },
    {
      "bufferView": 2,
      "componentType": 5126,
      "count": 504,
      "max": [
        0.9596993327140808,
        0.5143439769744873,
        0.48917120695114136
      ],
      "min": [
        -0.9596993327140808,
        -0.5143440365791321,
        -0.48917120695114136
      ],
      "name": "Lun_03/POSITION",
      "type": "VEC3"
    },
    {
      "bufferView": 2,
      "byteOffset": 12,
      "componentType": 5126,
      "count": 504,
      "name": "Lun_03/NORMAL",
      "type": "VEC3"
    },
    {
      "bufferView": 2,
      "byteOffset": 24,
      "componentType": 5126,
      "count": 504,
      "name": "Lun_03/TEXCOORD_0",
      "type": "VEC2"
    },
    {
      "bufferView": 2,
      "byteOffset": 32,
      "componentType": 5126,
      "count": 504,
      "name": "Lun_03/TEXCOORD_1",
      "type": "VEC2"
    },
    {
      "bufferView": 2,
      "byteOffset": 40,
      "componentType": 5126,
      "count": 504,
      "name": "Lun_03/TEXCOORD_2",
      "type": "VEC2"
    },
    {
      "bufferView": 2,
      "byteOffset": 48,
      "componentType": 5126,
      "count": 504,
      "name": "Lun_03/TEXCOORD_3",
      "type": "VEC2"
    },
    {
      "bufferView": 2,
      "byteOffset": 56,
      "componentType": 5126,
      "count": 504,
      "name": "Lun_03/TEXCOORD_4",
      "type": "VEC2"
    },
    {
      "bufferView": 3,
      "componentType": 5123,
      "count": 1080,
      "name": "Lun_03/INDICES",
      "type": "SCALAR"
    },
    {
      "bufferView": 4,
      "componentType": 5126,
      "count": 1400,
      "max": [
        1.6821751594543457,
        3.1970534324645996,
        3.1352686882019043
      ],
      "min": [
        -1.6821751594543457,
        0.25260406732559204,
        -2.5473744869232178
      ],
      "name": "CheXiang/POSITION",
      "type": "VEC3"
    },
    {
      "bufferView": 4,
      "byteOffset": 12,
      "componentType": 5126,
      "count": 1400,
      "name": "CheXiang/NORMAL",
      "type": "VEC3"
    },
    {
      "bufferView": 4,
      "byteOffset": 24,
      "componentType": 5126,
      "count": 1400,
      "name": "CheXiang/TEXCOORD_0",
      "type": "VEC2"
    },
    {
      "bufferView": 4,
      "byteOffset": 32,
      "componentType": 5126,
      "count": 1400,
      "name": "CheXiang/TEXCOORD_1",
      "type": "VEC2"
    },
    {
      "bufferView": 4,
      "byteOffset": 40,
      "componentType": 5126,
      "count": 1400,
      "name": "CheXiang/TEXCOORD_2",
      "type": "VEC2"
    },
    {
      "bufferView": 4,
      "byteOffset": 48,
      "componentType": 5126,
      "count": 1400,
      "name": "CheXiang/TEXCOORD_3",
      "type": "VEC2"
    },
    {
      "bufferView": 4,
      "byteOffset": 56,
      "componentType": 5126,
      "count": 1400,
      "name": "CheXiang/TEXCOORD_4",
      "type": "VEC2"
    },
    {
      "bufferView": 5,
      "componentType": 5123,
      "count": 2082,
      "name": "CheXiang/INDICES",
      "type": "SCALAR"
    },
    {
      "bufferView": 6,
      "componentType": 5126,
      "count": 1,
      "name": "Lun_02/translation/Output",
      "type": "VEC3"
    },
    {
      "bufferView": 7,
      "componentType": 5126,
      "count": 1,
      "max": [
        3.3333332538604736
      ],
      "min": [
        3.3333332538604736
      ],
      "name": "Lun_02/translation/Input",
      "type": "SCALAR"
    },
    {
      "bufferView": 8,
      "componentType": 5126,
      "count": 4,
      "name": "Lun_02/rotation/Output",
      "type": "VEC4"
    },
    {
      "bufferView": 9,
      "componentType": 5126,
      "count": 4,
      "max": [
        0.6666666865348816
      ],
      "min": [
        0.0
      ],
      "name": "Lun_02/rotation/Input",
      "type": "SCALAR"
    },
    {
      "bufferView": 10,
      "componentType": 5126,
      "count": 1,
      "name": "Lun_02/scale/Output",
      "type": "VEC3"
    },
    {
      "bufferView": 11,
      "componentType": 5126,
      "count": 1,
      "max": [
        3.3333332538604736
      ],
      "min": [
        3.3333332538604736
      ],
      "name": "Lun_02/scale/Input",
      "type": "SCALAR"
    },
    {
      "bufferView": 12,
      "componentType": 5126,
      "count": 1,
      "name": "Lun_03/translation/Output",
      "type": "VEC3"
    },
    {
      "bufferView": 13,
      "componentType": 5126,
      "count": 1,
      "max": [
        3.3333332538604736
      ],
      "min": [
        3.3333332538604736
      ],
      "name": "Lun_03/translation/Input",
      "type": "SCALAR"
    },
    {
      "bufferView": 14,
      "componentType": 5126,
      "count": 4,
      "name": "Lun_03/rotation/Output",
      "type": "VEC4"
    },
    {
      "bufferView": 15,
      "componentType": 5126,
      "count": 4,
      "max": [
        0.6666666865348816
      ],
      "min": [
        0.0
      ],
      "name": "Lun_03/rotation/Input",
      "type": "SCALAR"
    },
    {
      "bufferView": 16,
      "componentType": 5126,
      "count": 1,
      "name": "Lun_03/scale/Output",
      "type": "VEC3"
    },
    {
      "bufferView": 17,
      "componentType": 5126,
      "count": 1,
      "max": [
        3.3333332538604736
      ],
      "min": [
        3.3333332538604736
      ],
      "name": "Lun_03/scale/Input",
      "type": "SCALAR"
    }
  ],
  "animations": [
    {
      "channels": [
        {
          "sampler": 0,
          "target": {
            "node": 0,
            "path": "translation"
          }
        },
        {
          "sampler": 1,
          "target": {
            "node": 0,
            "path": "rotation"
          }
        },
        {
          "sampler": 2,
          "target": {
            "node": 0,
            "path": "scale"
          }
        },
        {
          "sampler": 3,
          "target": {
            "node": 1,
            "path": "translation"
          }
        },
        {
          "sampler": 4,
          "target": {
            "node": 1,
            "path": "rotation"
          }
        },
        {
          "sampler": 5,
          "target": {
            "node": 1,
            "path": "scale"
          }
        }
      ],
      "name": "Take 001",
      "samplers": [
        {
          "input": 25,
          "output": 24
        },
        {
          "input": 27,
          "output": 26
        },
        {
          "input": 29,
          "output": 28
        },
        {
          "input": 31,
          "output": 30
        },
        {
          "input": 33,
          "output": 32
        },
        {
          "input": 35,
          "output": 34
        }
      ]
    }
  ],
  "asset": {
    "copyright": "Copyright (c) 2018-2020 Chukong Technologies Inc.",
    "generator": "FBX-glTF-conv",
    "version": "2.0"
  },
  "bufferViews": [
    {
      "buffer": 0,
      "byteLength": 32256,
      "byteStride": 64,
      "name": "Lun_02",
      "target": 34962
    },
    {
      "buffer": 0,
      "byteLength": 2160,
      "byteOffset": 32256,
      "target": 34963
    },
    {
      "buffer": 0,
      "byteLength": 32256,
      "byteOffset": 34416,
      "byteStride": 64,
      "name": "Lun_03",
      "target": 34962
    },
    {
      "buffer": 0,
      "byteLength": 2160,
      "byteOffset": 66672,
      "target": 34963
    },
    {
      "buffer": 0,
      "byteLength": 89600,
      "byteOffset": 68832,
      "byteStride": 64,
      "name": "CheXiang",
      "target": 34962
    },
    {
      "buffer": 0,
      "byteLength": 4164,
      "byteOffset": 158432,
      "target": 34963
    },
    {
      "buffer": 0,
      "byteLength": 12,
      "byteOffset": 162596
    },
    {
      "buffer": 0,
      "byteLength": 4,
      "byteOffset": 162608
    },
    {
      "buffer": 0,
      "byteLength": 64,
      "byteOffset": 162612
    },
    {
      "buffer": 0,
      "byteLength": 16,
      "byteOffset": 162676
    },
    {
      "buffer": 0,
      "byteLength": 12,
      "byteOffset": 162692
    },
    {
      "buffer": 0,
      "byteLength": 4,
      "byteOffset": 162704
    },
    {
      "buffer": 0,
      "byteLength": 12,
      "byteOffset": 162708
    },
    {
      "buffer": 0,
      "byteLength": 4,
      "byteOffset": 162720
    },
    {
      "buffer": 0,
      "byteLength": 64,
      "byteOffset": 162724
    },
    {
      "buffer": 0,
      "byteLength": 16,
      "byteOffset": 162788
    },
    {
      "buffer": 0,
      "byteLength": 12,
      "byteOffset": 162804
    },
    {
      "buffer": 0,
      "byteLength": 4,
      "byteOffset": 162816
    }
  ],
  "buffers": [
    {
      "byteLength": 162820,
      "uri": "out.bin"
    }
  ],
  "extras": {
    "FBX-glTF-conv": {
      "animationFrameRate": 30.0,
      "fbxFileHeaderInfo": {
        "creationTimeStamp": {
          "day": 19,
          "hour": 19,
          "millisecond": 202,
          "minute": 49,
          "month": 5,
          "second": 25,
          "year": 2025
        },
        "creator": "FBX SDK/FBX Plugins version 2016.0",
        "sceneInfo": {
          "author": "",
          "comment": "",
          "keywords": "",
          "original": {
            "applicationName": "3ds Max",
            "applicationVendor": "Autodesk",
            "applicationVersion": "2014",
            "fileName": "C:\\Users\\a\\Desktop\\CheXiang.FBX"
          },
          "revision": "",
          "subject": "",
          "title": "",
          "url": "D:\\Project\\shamohuocheshouge\\Client\\cocos\\SMHCSG\\assets\\models\\车厢.FBX"
        }
      }
    }
  },
  "images": [
    {
      "extras": {
        "FBX-glTF-conv": {
          "fileName": "E:\\Work_SVN\\W17huocheshougeziyuan\\Client\\Assets\\ART\\Scenes\\Textures\\T_PolygonWestern_01_A_2.PNG",
          "relativeFileName": "E:\\Work_SVN\\W17huocheshougeziyuan\\Client\\Assets\\ART\\Scenes\\Textures\\T_PolygonWestern_01_A_2.PNG"
        }
      },
      "name": "Map #8",
      "uri": "data:image/png;base64,"
    }
  ],
  "materials": [
    {
      "extras": {
        "FBX-glTF-conv": {
          "raw": {
            "properties": {
              "ambient": {
                "value": [
                  0.2158605009317398,
                  0.2158605009317398,
                  0.2158605009317398
                ]
              },
              "ambientFactor": {
                "value": 0.0
              },
              "bump": {
                "value": [
                  0.0,
                  0.0,
                  0.0
                ]
              },
              "bumpFactor": {
                "value": 1.0
              },
              "diffuse": {
                "value": [
                  0.2158605009317398,
                  0.2158605009317398,
                  0.2158605009317398
                ]
              },
              "diffuseFactor": {
                "value": 1.0
              },
              "displacementColor": {
                "value": [
                  0.0,
                  0.0,
                  0.0
                ]
              },
              "displacementFactor": {
                "value": 1.0
              },
              "emissive": {
                "value": [
                  0.0,
                  0.0,
                  0.0
                ]
              },
              "emissiveFactor": {
                "value": 0.0
              },
              "normalMap": {
                "value": [
                  0.0,
                  0.0,
                  0.0
                ]
              },
              "reflection": {
                "value": [
                  0.0,
                  0.0,
                  0.0
                ]
              },
              "reflectionFactor": {
                "value": 1.0
              },
              "shadingModel": "phong",
              "shininess": {
                "value": 19.999998092651367
              },
              "specular": {
                "value": [
                  0.20000000298023224,
                  0.20000000298023224,
                  0.20000000298023224
                ]
              },
              "specularFactor": {
                "value": 0.8643856048583984
              },
              "transparencyFactor": {
                "value": 0.0
              },
              "transparentColor": {
                "value": [
                  1.0,
                  1.0,
                  1.0
                ]
              },
              "vectorDisplacementColor": {
                "value": [
                  0.0,
                  0.0,
                  0.0
                ]
              },
              "vectorDisplacementFactor": {
                "value": 1.0
              }
            },
            "type": "phong"
          }
        }
      },
      "name": "M_火车2"
    },
    {
      "extras": {
        "FBX-glTF-conv": {
          "raw": {
            "properties": {
              "ambient": {
                "value": [
                  0.5879999995231628,
                  0.5879999995231628,
                  0.5879999995231628
                ]
              },
              "ambientFactor": {
                "value": 0.0
              },
              "bump": {
                "value": [
                  0.0,
                  0.0,
                  0.0
                ]
              },
              "bumpFactor": {
                "value": 1.0
              },
              "diffuse": {
                "texture": {
                  "index": 0
                },
                "value": [
                  0.5879999995231628,
                  0.5879999995231628,
                  0.5879999995231628
                ]
              },
              "diffuseFactor": {
                "value": 1.0
              },
              "displacementColor": {
                "value": [
                  0.0,
                  0.0,
                  0.0
                ]
              },
              "displacementFactor": {
                "value": 1.0
              },
              "emissive": {
                "value": [
                  0.0,
                  0.0,
                  0.0
                ]
              },
              "emissiveFactor": {
                "value": 0.0
              },
              "normalMap": {
                "value": [
                  0.0,
                  0.0,
                  0.0
                ]
              },
              "reflection": {
                "value": [
                  0.0,
                  0.0,
                  0.0
                ]
              },
              "reflectionFactor": {
                "value": 1.0
              },
              "shadingModel": "phong",
              "shininess": {
                "value": 2.0
              },
              "specular": {
                "value": [
                  0.8999999761581421,
                  0.8999999761581421,
                  0.8999999761581421
                ]
              },
              "specularFactor": {
                "value": 0.0
              },
              "transparencyFactor": {
                "value": 0.0
              },
              "transparentColor": {
                "value": [
                  1.0,
                  1.0,
                  1.0
                ]
              },
              "vectorDisplacementColor": {
                "value": [
                  0.0,
                  0.0,
                  0.0
                ]
              },
              "vectorDisplacementFactor": {
                "value": 1.0
              }
            },
            "type": "phong"
          }
        }
      },
      "name": "Material #163"
    }
  ],
  "meshes": [
    {
      "name": "Lun_02",
      "primitives": [
        {
          "attributes": {
            "NORMAL": 1,
            "POSITION": 0,
            "TEXCOORD_0": 2,
            "TEXCOORD_1": 3,
            "TEXCOORD_2": 4,
            "TEXCOORD_3": 5,
            "TEXCOORD_4": 6
          },
          "indices": 7,
          "material": 0
        }
      ]
    },
    {
      "name": "Lun_03",
      "primitives": [
        {
          "attributes": {
            "NORMAL": 9,
            "POSITION": 8,
            "TEXCOORD_0": 10,
            "TEXCOORD_1": 11,
            "TEXCOORD_2": 12,
            "TEXCOORD_3": 13,
            "TEXCOORD_4": 14
          },
          "indices": 15,
          "material": 0
        }
      ]
    },
    {
      "name": "CheXiang",
      "primitives": [
        {
          "attributes": {
            "NORMAL": 17,
            "POSITION": 16,
            "TEXCOORD_0": 18,
            "TEXCOORD_1": 19,
            "TEXCOORD_2": 20,
            "TEXCOORD_3": 21,
            "TEXCOORD_4": 22
          },
          "indices": 23,
          "material": 1
        }
      ]
    }
  ],
  "nodes": [
    {
      "mesh": 0,
      "name": "Lun_02",
      "translation": [
        -9.766656603460433e-07,
        0.5143435001373291,
        1.534571647644043
      ]
    },
    {
      "mesh": 1,
      "name": "Lun_03",
      "translation": [
        -3.265171812927292e-07,
        0.5143435001373291,
        -0.7352055311203003
      ]
    },
    {
      "mesh": 2,
      "name": "CheXiang",
      "translation": [
        -8.016679657885106e-07,
        0.0,
        0.0
      ]
    }
  ],
  "samplers": [
    {}
  ],
  "scenes": [
    {
      "nodes": [
        0,
        1,
        2
      ]
    }
  ],
  "textures": [
    {
      "name": "Map #8",
      "sampler": 0,
      "source": 0
    }
  ]
}