{
  "accessors": [
    {
      "bufferView": 0,
      "componentType": 5126,
      "count": 17166,
      "max": [
        1.236667513847351,
        0.08970870822668076,
        4.140477180480957
      ],
      "min": [
        -1.2396948337554932,
        -0.095789335668087,
        2.3817849159240723
      ],
      "name": "Dianjuzujian03/POSITION",
      "type": "VEC3"
    },
    {
      "bufferView": 0,
      "byteOffset": 12,
      "componentType": 5126,
      "count": 17166,
      "name": "Dianjuzujian03/NORMAL",
      "type": "VEC3"
    },
    {
      "bufferView": 0,
      "byteOffset": 24,
      "componentType": 5126,
      "count": 17166,
      "name": "Dianjuzujian03/TEXCOORD_0",
      "type": "VEC2"
    },
    {
      "bufferView": 1,
      "componentType": 5123,
      "count": 25248,
      "name": "Dianjuzujian03/INDICES",
      "type": "SCALAR"
    },
    {
      "bufferView": 2,
      "componentType": 5126,
      "count": 3752,
      "max": [
        1.2342675924301147,
        0.08970870822668076,
        2.382847547531128
      ],
      "min": [
        -1.238588809967041,
        -0.095789335668087,
        1.1863489151000977
      ],
      "name": "Dianjuzujian02/POSITION",
      "type": "VEC3"
    },
    {
      "bufferView": 2,
      "byteOffset": 12,
      "componentType": 5126,
      "count": 3752,
      "name": "Dianjuzujian02/NORMAL",
      "type": "VEC3"
    },
    {
      "bufferView": 2,
      "byteOffset": 24,
      "componentType": 5126,
      "count": 3752,
      "name": "Dianjuzujian02/TEXCOORD_0",
      "type": "VEC2"
    },
    {
      "bufferView": 3,
      "componentType": 5123,
      "count": 5448,
      "name": "Dianjuzujian02/INDICES",
      "type": "SCALAR"
    },
    {
      "bufferView": 4,
      "componentType": 5126,
      "count": 4926,
      "max": [
        1.7235620021820068,
        0.3783760070800781,
        1.210402011871338
      ],
      "min": [
        -1.727871060371399,
        -0.3844558596611023,
        -0.2731790244579315
      ],
      "name": "Dianjuzujian01/POSITION",
      "type": "VEC3"
    },
    {
      "bufferView": 4,
      "byteOffset": 12,
      "componentType": 5126,
      "count": 4926,
      "name": "Dianjuzujian01/NORMAL",
      "type": "VEC3"
    },
    {
      "bufferView": 4,
      "byteOffset": 24,
      "componentType": 5126,
      "count": 4926,
      "name": "Dianjuzujian01/TEXCOORD_0",
      "type": "VEC2"
    },
    {
      "bufferView": 5,
      "componentType": 5123,
      "count": 20340,
      "name": "Dianjuzujian01/INDICES",
      "type": "SCALAR"
    },
    {
      "bufferView": 6,
      "componentType": 5126,
      "count": 1,
      "name": "dianju3_6/rotation/Output",
      "type": "VEC4"
    },
    {
      "bufferView": 7,
      "componentType": 5126,
      "count": 1,
      "max": [
        3.3333332538604736
      ],
      "min": [
        3.3333332538604736
      ],
      "name": "dianju3_6/rotation/Input",
      "type": "SCALAR"
    },
    {
      "bufferView": 8,
      "componentType": 5126,
      "count": 1,
      "name": "Dianjuzujian03/rotation/Output",
      "type": "VEC4"
    },
    {
      "bufferView": 9,
      "componentType": 5126,
      "count": 1,
      "max": [
        3.3333332538604736
      ],
      "min": [
        3.3333332538604736
      ],
      "name": "Dianjuzujian03/rotation/Input",
      "type": "SCALAR"
    },
    {
      "bufferView": 10,
      "componentType": 5126,
      "count": 1,
      "name": "Dianjuzujian02/rotation/Output",
      "type": "VEC4"
    },
    {
      "bufferView": 11,
      "componentType": 5126,
      "count": 1,
      "max": [
        3.3333332538604736
      ],
      "min": [
        3.3333332538604736
      ],
      "name": "Dianjuzujian02/rotation/Input",
      "type": "SCALAR"
    },
    {
      "bufferView": 12,
      "componentType": 5126,
      "count": 1,
      "name": "Dianjuzujian01/rotation/Output",
      "type": "VEC4"
    },
    {
      "bufferView": 13,
      "componentType": 5126,
      "count": 1,
      "max": [
        3.3333332538604736
      ],
      "min": [
        3.3333332538604736
      ],
      "name": "Dianjuzujian01/rotation/Input",
      "type": "SCALAR"
    }
  ],
  "animations": [
    {
      "channels": [
        {
          "sampler": 0,
          "target": {
            "node": 0,
            "path": "rotation"
          }
        },
        {
          "sampler": 1,
          "target": {
            "node": 1,
            "path": "rotation"
          }
        },
        {
          "sampler": 2,
          "target": {
            "node": 2,
            "path": "rotation"
          }
        },
        {
          "sampler": 3,
          "target": {
            "node": 3,
            "path": "rotation"
          }
        }
      ],
      "name": "Take 001",
      "samplers": [
        {
          "input": 13,
          "output": 12
        },
        {
          "input": 15,
          "output": 14
        },
        {
          "input": 17,
          "output": 16
        },
        {
          "input": 19,
          "output": 18
        }
      ]
    }
  ],
  "asset": {
    "copyright": "Copyright (c) 2018-2020 Chukong Technologies Inc.",
    "generator": "FBX-glTF-conv",
    "version": "2.0"
  },
  "bufferViews": [
    {
      "buffer": 0,
      "byteLength": 549312,
      "byteStride": 32,
      "name": "Dianjuzujian03",
      "target": 34962
    },
    {
      "buffer": 0,
      "byteLength": 50496,
      "byteOffset": 549312,
      "target": 34963
    },
    {
      "buffer": 0,
      "byteLength": 120064,
      "byteOffset": 599808,
      "byteStride": 32,
      "name": "Dianjuzujian02",
      "target": 34962
    },
    {
      "buffer": 0,
      "byteLength": 10896,
      "byteOffset": 719872,
      "target": 34963
    },
    {
      "buffer": 0,
      "byteLength": 157632,
      "byteOffset": 730768,
      "byteStride": 32,
      "name": "Dianjuzujian01",
      "target": 34962
    },
    {
      "buffer": 0,
      "byteLength": 40680,
      "byteOffset": 888400,
      "target": 34963
    },
    {
      "buffer": 0,
      "byteLength": 16,
      "byteOffset": 929080
    },
    {
      "buffer": 0,
      "byteLength": 4,
      "byteOffset": 929096
    },
    {
      "buffer": 0,
      "byteLength": 16,
      "byteOffset": 929100
    },
    {
      "buffer": 0,
      "byteLength": 4,
      "byteOffset": 929116
    },
    {
      "buffer": 0,
      "byteLength": 16,
      "byteOffset": 929120
    },
    {
      "buffer": 0,
      "byteLength": 4,
      "byteOffset": 929136
    },
    {
      "buffer": 0,
      "byteLength": 16,
      "byteOffset": 929140
    },
    {
      "buffer": 0,
      "byteLength": 4,
      "byteOffset": 929156
    }
  ],
  "buffers": [
    {
      "byteLength": 929160,
      "uri": "out.bin"
    }
  ],
  "extras": {
    "FBX-glTF-conv": {
      "animationFrameRate": 30.0,
      "fbxFileHeaderInfo": {
        "creationTimeStamp": {
          "day": 10,
          "hour": 16,
          "millisecond": 470,
          "minute": 24,
          "month": 3,
          "second": 4,
          "year": 2026
        },
        "creator": "FBX SDK/FBX Plugins version 2020.0.1",
        "sceneInfo": {
          "author": "",
          "comment": "",
          "keywords": "",
          "original": {
            "applicationName": "3ds Max",
            "applicationVendor": "Autodesk",
            "applicationVersion": "2021",
            "fileName": "C:\\Users\\Administrator\\Desktop\\锯片002.fbx"
          },
          "revision": "",
          "subject": "",
          "title": "",
          "url": "D:\\Project\\shamohuocheshouge\\Client\\cocos\\SMHCSG\\assets\\沙漠火车收割\\Models\\锯片002.fbx"
        }
      }
    }
  },
  "images": [
    {
      "extras": {
        "FBX-glTF-conv": {
          "fileName": "F:\\HeiNu_2025\\0611\\JuPian.jpg",
          "relativeFileName": "F:\\HeiNu_2025\\0611\\JuPian.jpg"
        }
      },
      "name": "file1",
      "uri": "data:image/png;base64,"
    }
  ],
  "materials": [
    {
      "extras": {
        "FBX-glTF-conv": {
          "raw": {
            "properties": {
              "3dsMax": {
                "value": {
                  "ClassIDa": {
                    "value": 2121471519
                  },
                  "ClassIDb": {
                    "value": 1660373836
                  },
                  "ORIGINAL_MTL": {
                    "value": "PHYSICAL_MTL"
                  },
                  "Parameters": {
                    "value": {
                      "aniso_angle_map_on": {
                        "value": true
                      },
                      "aniso_channel": {
                        "value": 0
                      },
                      "aniso_mode": {
                        "value": 0
                      },
                      "anisoangle": {
                        "value": 0.0
                      },
                      "anisotropy": {
                        "value": 0.0
                      },
                      "anisotropy_map_on": {
                        "value": true
                      },
                      "base_color": {
                        "value": [
                          0.800000011920929,
                          0.800000011920929,
                          0.800000011920929,
                          1.0
                        ]
                      },
                      "base_color_map": {
                        "value": {
                          "index": 0
                        }
                      },
                      "base_color_map_on": {
                        "value": true
                      },
                      "base_weight": {
                        "value": 1.0
                      },
                      "base_weight_map_on": {
                        "value": true
                      },
                      "brdf_curve": {
                        "value": 5.0
                      },
                      "brdf_high": {
                        "value": 1.0
                      },
                      "brdf_low": {
                        "value": 0.05000000074505806
                      },
                      "brdf_mode": {
                        "value": true
                      },
                      "coat_affect_color": {
                        "value": 0.5
                      },
                      "coat_affect_roughness": {
                        "value": 0.5
                      },
                      "coat_color": {
                        "value": [
                          1.0,
                          1.0,
                          1.0,
                          1.0
                        ]
                      },
                      "coat_color_map_on": {
                        "value": true
                      },
                      "coat_ior": {
                        "value": 1.5199999809265137
                      },
                      "coat_map_on": {
                        "value": true
                      },
                      "coat_rough_map_on": {
                        "value": true
                      },
                      "coat_roughness": {
                        "value": 0.0
                      },
                      "coat_roughness_inv": {
                        "value": false
                      },
                      "coating": {
                        "value": 0.0
                      },
                      "cutout_map_on": {
                        "value": true
                      },
                      "diff_rough_map_on": {
                        "value": true
                      },
                      "diff_roughness": {
                        "value": 0.0
                      },
                      "displacement_map_amt": {
                        "value": 1.0
                      },
                      "displacement_map_on": {
                        "value": true
                      },
                      "emission": {
                        "value": 1.0
                      },
                      "emission_map_on": {
                        "value": true
                      },
                      "emit_color": {
                        "value": [
                          0.0,
                          0.0,
                          0.0,
                          1.0
                        ]
                      },
                      "emit_color_map_on": {
                        "value": true
                      },
                      "emit_kelvin": {
                        "value": 6500.0
                      },
                      "emit_luminance": {
                        "value": 1500.0
                      },
                      "material_mode": {
                        "value": 0
                      },
                      "metalness": {
                        "value": 0.0
                      },
                      "metalness_map_on": {
                        "value": true
                      },
                      "refl_color": {
                        "value": [
                          0.0,
                          0.0,
                          0.0,
                          1.0
                        ]
                      },
                      "refl_color_map_on": {
                        "value": true
                      },
                      "reflectivity": {
                        "value": 1.0
                      },
                      "reflectivity_map_on": {
                        "value": true
                      },
                      "roughness": {
                        "value": 0.0
                      },
                      "roughness_inv": {
                        "value": false
                      },
                      "roughness_map_on": {
                        "value": true
                      },
                      "scattering": {
                        "value": 0.0
                      },
                      "scattering_map_on": {
                        "value": true
                      },
                      "sss_color": {
                        "value": [
                          1.0,
                          1.0,
                          1.0,
                          1.0
                        ]
                      },
                      "sss_color_map_on": {
                        "value": true
                      },
                      "sss_depth": {
                        "value": 10.0
                      },
                      "sss_scale": {
                        "value": 1.0
                      },
                      "sss_scale_map_on": {
                        "value": true
                      },
                      "sss_scatter_color": {
                        "value": [
                          100.0,
                          50.0,
                          25.0,
                          1.0
                        ]
                      },
                      "thin_walled": {
                        "value": true
                      },
                      "trans_color": {
                        "value": [
                          0.0,
                          0.0,
                          0.0,
                          1.0
                        ]
                      },
                      "trans_color_map_on": {
                        "value": true
                      },
                      "trans_depth": {
                        "value": 0.0
                      },
                      "trans_ior": {
                        "value": 1.5199999809265137
                      },
                      "trans_ior_map_on": {
                        "value": true
                      },
                      "trans_rough_map_on": {
                        "value": true
                      },
                      "trans_roughness": {
                        "value": 0.0
                      },
                      "trans_roughness_inv": {
                        "value": false
                      },
                      "trans_roughness_lock": {
                        "value": true
                      },
                      "transparency": {
                        "value": 0.0
                      },
                      "transparency_map_on": {
                        "value": true
                      }
                    }
                  },
                  "SuperClassID": {
                    "value": 3072
                  }
                }
              },
              "AmbientColor": {
                "value": [
                  0.800000011920929,
                  0.800000011920929,
                  0.800000011920929
                ]
              },
              "DiffuseColor": {
                "texture": {
                  "index": 0
                },
                "value": [
                  0.800000011920929,
                  0.800000011920929,
                  0.800000011920929
                ]
              },
              "EmissiveColor": {
                "value": [
                  0.0,
                  0.0,
                  0.0
                ]
              },
              "EmissiveFactor": {
                "value": 0.0
              },
              "MultiLayer": {
                "value": false
              },
              "ShadingModel": {
                "value": "unknown"
              },
              "ShininessExponent": {
                "value": 1024.0
              },
              "SpecularColor": {
                "value": [
                  0.0,
                  0.0,
                  0.0
                ]
              },
              "SpecularFactor": {
                "value": 2.0
              },
              "TransparencyFactor": {
                "value": 0.0
              }
            }
          }
        }
      },
      "name": "JuPian"
    }
  ],
  "meshes": [
    {
      "name": "Dianjuzujian03",
      "primitives": [
        {
          "attributes": {
            "NORMAL": 1,
            "POSITION": 0,
            "TEXCOORD_0": 2
          },
          "indices": 3,
          "material": 0
        }
      ]
    },
    {
      "name": "Dianjuzujian02",
      "primitives": [
        {
          "attributes": {
            "NORMAL": 5,
            "POSITION": 4,
            "TEXCOORD_0": 6
          },
          "indices": 7,
          "material": 0
        }
      ]
    },
    {
      "name": "Dianjuzujian01",
      "primitives": [
        {
          "attributes": {
            "NORMAL": 9,
            "POSITION": 8,
            "TEXCOORD_0": 10
          },
          "indices": 11,
          "material": 0
        }
      ]
    }
  ],
  "nodes": [
    {
      "children": [
        1,
        2,
        3
      ],
      "name": "dianju3_6",
      "translation": [
        34.34518814086914,
        2.2262823581695557,
        1.7467336654663086
      ]
    },
    {
      "mesh": 0,
      "name": "Dianjuzujian03",
      "translation": [
        -34.34518814086914,
        -2.2262825965881348,
        -1.7467336654663086
      ]
    },
    {
      "mesh": 1,
      "name": "Dianjuzujian02",
      "translation": [
        -34.34518814086914,
        -2.2262825965881348,
        -1.746733546257019
      ]
    },
    {
      "mesh": 2,
      "name": "Dianjuzujian01",
      "translation": [
        -34.34518814086914,
        -2.2262825965881348,
        -1.7467336654663086
      ]
    }
  ],
  "samplers": [
    {}
  ],
  "scenes": [
    {
      "nodes": [
        0
      ]
    }
  ],
  "textures": [
    {
      "name": "file1",
      "sampler": 0,
      "source": 0
    }
  ]
}