{
  "accessors": [
    {
      "bufferView": 0,
      "componentType": 5126,
      "count": 2564,
      "max": [
        1.5927180051803589,
        4.767257213592529,
        1.5953621864318848
      ],
      "min": [
        -1.8372924327850342,
        0.00012131042603868991,
        -1.5953619480133057
      ],
      "name": "shu/POSITION",
      "type": "VEC3"
    },
    {
      "bufferView": 0,
      "byteOffset": 12,
      "componentType": 5126,
      "count": 2564,
      "name": "shu/NORMAL",
      "type": "VEC3"
    },
    {
      "bufferView": 0,
      "byteOffset": 24,
      "componentType": 5126,
      "count": 2564,
      "name": "shu/TEXCOORD_0",
      "type": "VEC2"
    },
    {
      "bufferView": 1,
      "componentType": 5123,
      "count": 6153,
      "name": "shu/INDICES",
      "type": "SCALAR"
    }
  ],
  "asset": {
    "copyright": "Copyright (c) 2018-2020 Chukong Technologies Inc.",
    "generator": "FBX-glTF-conv",
    "version": "2.0"
  },
  "bufferViews": [
    {
      "buffer": 0,
      "byteLength": 82048,
      "byteStride": 32,
      "name": "shu",
      "target": 34962
    },
    {
      "buffer": 0,
      "byteLength": 12306,
      "byteOffset": 82048,
      "target": 34963
    }
  ],
  "buffers": [
    {
      "byteLength": 94354,
      "uri": "out.bin"
    }
  ],
  "extras": {
    "FBX-glTF-conv": {
      "animationFrameRate": 30.0,
      "fbxFileHeaderInfo": {
        "creationTimeStamp": {
          "day": 6,
          "hour": 13,
          "millisecond": 528,
          "minute": 13,
          "month": 3,
          "second": 53,
          "year": 2026
        },
        "creator": "FBX SDK/FBX Plugins version 2020.3.2",
        "sceneInfo": {
          "author": "",
          "comment": "",
          "keywords": "",
          "original": {
            "applicationName": "Maya",
            "applicationVendor": "Autodesk",
            "applicationVersion": "2024",
            "fileName": "D:\\xaingmu\\3.4\\沙漠火车收割 - ssd\\3.4提交\\树.fbx"
          },
          "revision": "",
          "subject": "",
          "title": "",
          "url": "D:\\Project\\shamohuocheshouge\\Client\\cocos\\SMHCSG\\assets\\沙漠火车收割\\Models\\树.fbx"
        }
      }
    }
  },
  "images": [
    {
      "extras": {
        "FBX-glTF-conv": {
          "fileName": "D:\\xaingmu\\3.4\\沙漠火车收割 - ssd\\3.4提交\\树_BC.png",
          "relativeFileName": "树_BC.png"
        }
      },
      "name": "贴图 #7",
      "uri": "data:image/png;base64,"
    }
  ],
  "materials": [
    {
      "extras": {
        "FBX-glTF-conv": {
          "raw": {
            "properties": {
              "Maya": {
                "value": {
                  "FBXASC229FBXASC144FBXASC175FBXASC231FBXASC148FBXASC168": {
                    "value": false
                  },
                  "TypeId": {
                    "value": 1138001
                  },
                  "aiEnableMatte": {
                    "value": false
                  },
                  "aiMatteColor": {
                    "value": [
                      0.0,
                      0.0,
                      0.0
                    ]
                  },
                  "aiMatteColorA": {
                    "value": 0.0
                  },
                  "aovId1": {
                    "value": ""
                  },
                  "aovId2": {
                    "value": ""
                  },
                  "aovId3": {
                    "value": ""
                  },
                  "aovId4": {
                    "value": ""
                  },
                  "aovId5": {
                    "value": ""
                  },
                  "aovId6": {
                    "value": ""
                  },
                  "aovId7": {
                    "value": ""
                  },
                  "aovId8": {
                    "value": ""
                  },
                  "base": {
                    "value": 1.0
                  },
                  "baseColor": {
                    "texture": {
                      "index": 0
                    },
                    "value": [
                      0.0,
                      0.0,
                      0.0
                    ]
                  },
                  "caustics": {
                    "value": false
                  },
                  "coat": {
                    "value": 0.0
                  },
                  "coatAffectColor": {
                    "value": 0.5
                  },
                  "coatAffectRoughness": {
                    "value": 0.5
                  },
                  "coatAnisotropy": {
                    "value": 0.0
                  },
                  "coatColor": {
                    "value": [
                      1.0,
                      1.0,
                      1.0
                    ]
                  },
                  "coatIOR": {
                    "value": 1.5199999809265137
                  },
                  "coatNormal": {
                    "value": [
                      0.0,
                      0.0,
                      0.0
                    ]
                  },
                  "coatRotation": {
                    "value": 0.0
                  },
                  "coatRoughness": {
                    "value": 0.0
                  },
                  "dielectricPriority": {
                    "value": 0
                  },
                  "diffuseRoughness": {
                    "value": 0.0
                  },
                  "emission": {
                    "value": 1.0
                  },
                  "emissionColor": {
                    "value": [
                      0.0,
                      0.0,
                      0.0
                    ]
                  },
                  "exitToBackground": {
                    "value": false
                  },
                  "id1": {
                    "value": [
                      0.0,
                      0.0,
                      0.0
                    ]
                  },
                  "id2": {
                    "value": [
                      0.0,
                      0.0,
                      0.0
                    ]
                  },
                  "id3": {
                    "value": [
                      0.0,
                      0.0,
                      0.0
                    ]
                  },
                  "id4": {
                    "value": [
                      0.0,
                      0.0,
                      0.0
                    ]
                  },
                  "id5": {
                    "value": [
                      0.0,
                      0.0,
                      0.0
                    ]
                  },
                  "id6": {
                    "value": [
                      0.0,
                      0.0,
                      0.0
                    ]
                  },
                  "id7": {
                    "value": [
                      0.0,
                      0.0,
                      0.0
                    ]
                  },
                  "id8": {
                    "value": [
                      0.0,
                      0.0,
                      0.0
                    ]
                  },
                  "indirectDiffuse": {
                    "value": 1.0
                  },
                  "indirectSpecular": {
                    "value": 1.0
                  },
                  "internalReflections": {
                    "value": true
                  },
                  "metalness": {
                    "value": 0.0
                  },
                  "normalCamera": {
                    "value": [
                      1.0,
                      1.0,
                      1.0
                    ]
                  },
                  "normalCameraFactor": {
                    "value": 0.0
                  },
                  "normalCameraUsedAs": {
                    "value": 0
                  },
                  "opacity": {
                    "value": [
                      1.0,
                      1.0,
                      1.0
                    ]
                  },
                  "outAlpha": {
                    "value": 0.0
                  },
                  "sheen": {
                    "value": 0.0
                  },
                  "sheenColor": {
                    "value": [
                      1.0,
                      1.0,
                      1.0
                    ]
                  },
                  "sheenRoughness": {
                    "value": 0.30000001192092896
                  },
                  "specular": {
                    "value": 1.0
                  },
                  "specularAnisotropy": {
                    "value": 0.0
                  },
                  "specularColor": {
                    "value": [
                      1.0,
                      1.0,
                      1.0
                    ]
                  },
                  "specularIOR": {
                    "value": 1.5199999809265137
                  },
                  "specularRotation": {
                    "value": 0.0
                  },
                  "specularRoughness": {
                    "value": 0.0
                  },
                  "subsurface": {
                    "value": 0.0
                  },
                  "subsurfaceAnisotropy": {
                    "value": 0.0
                  },
                  "subsurfaceColor": {
                    "value": [
                      1.0,
                      1.0,
                      1.0
                    ]
                  },
                  "subsurfaceRadius": {
                    "value": [
                      100.0,
                      50.0,
                      25.0
                    ]
                  },
                  "subsurfaceScale": {
                    "value": 1.0
                  },
                  "tangent": {
                    "value": [
                      0.0,
                      0.0,
                      0.0
                    ]
                  },
                  "thinFilmIOR": {
                    "value": 1.5
                  },
                  "thinFilmThickness": {
                    "value": 0.0
                  },
                  "thinWalled": {
                    "value": false
                  },
                  "transmission": {
                    "value": 0.0
                  },
                  "transmissionColor": {
                    "value": [
                      1.0,
                      1.0,
                      1.0
                    ]
                  },
                  "transmissionDepth": {
                    "value": 0.0
                  },
                  "transmissionDispersion": {
                    "value": 0.0
                  },
                  "transmissionExtraRoughness": {
                    "value": 0.0
                  },
                  "transmissionScatter": {
                    "value": [
                      0.0,
                      0.0,
                      0.0
                    ]
                  },
                  "transmissionScatterAnisotropy": {
                    "value": 0.0
                  },
                  "transmitAovs": {
                    "value": false
                  }
                }
              },
              "MultiLayer": {
                "value": false
              },
              "ShadingModel": {
                "value": ""
              }
            }
          }
        }
      },
      "name": "shu"
    }
  ],
  "meshes": [
    {
      "name": "shu",
      "primitives": [
        {
          "attributes": {
            "NORMAL": 1,
            "POSITION": 0,
            "TEXCOORD_0": 2
          },
          "indices": 3,
          "material": 0
        }
      ]
    }
  ],
  "nodes": [
    {
      "mesh": 0,
      "name": "shu"
    }
  ],
  "samplers": [
    {}
  ],
  "scenes": [
    {
      "nodes": [
        0
      ]
    }
  ],
  "textures": [
    {
      "name": "贴图 #7",
      "sampler": 0,
      "source": 0
    }
  ]
}