{
  "accessors": [
    {
      "bufferView": 0,
      "componentType": 5126,
      "count": 648,
      "max": [
        1.6925311088562012,
        0.5953615307807922,
        3.471750259399414
      ],
      "min": [
        -1.4661154747009277,
        -0.03818118944764137,
        -3.210031032562256
      ],
      "name": "fbx_city_kt_guidao_01/POSITION",
      "type": "VEC3"
    },
    {
      "bufferView": 0,
      "byteOffset": 12,
      "componentType": 5126,
      "count": 648,
      "name": "fbx_city_kt_guidao_01/NORMAL",
      "type": "VEC3"
    },
    {
      "bufferView": 0,
      "byteOffset": 24,
      "componentType": 5126,
      "count": 648,
      "name": "fbx_city_kt_guidao_01/TEXCOORD_0",
      "type": "VEC2"
    },
    {
      "bufferView": 0,
      "byteOffset": 32,
      "componentType": 5126,
      "count": 648,
      "name": "fbx_city_kt_guidao_01/TEXCOORD_1",
      "type": "VEC2"
    },
    {
      "bufferView": 1,
      "componentType": 5123,
      "count": 1113,
      "name": "fbx_city_kt_guidao_01/INDICES",
      "type": "SCALAR"
    }
  ],
  "asset": {
    "copyright": "Copyright (c) 2018-2020 Chukong Technologies Inc.",
    "generator": "FBX-glTF-conv",
    "version": "2.0"
  },
  "bufferViews": [
    {
      "buffer": 0,
      "byteLength": 25920,
      "byteStride": 40,
      "name": "fbx_city_kt_guidao_01",
      "target": 34962
    },
    {
      "buffer": 0,
      "byteLength": 2226,
      "byteOffset": 25920,
      "target": 34963
    }
  ],
  "buffers": [
    {
      "byteLength": 28146,
      "uri": "out.bin"
    }
  ],
  "extras": {
    "FBX-glTF-conv": {
      "animationFrameRate": 24.0,
      "fbxFileHeaderInfo": {
        "creationTimeStamp": {
          "day": 29,
          "hour": 14,
          "millisecond": 877,
          "minute": 23,
          "month": 3,
          "second": 52,
          "year": 2024
        },
        "creator": "FBX SDK/FBX Plugins version 2018.1.1",
        "sceneInfo": {
          "author": "",
          "comment": "",
          "keywords": "",
          "original": {
            "applicationName": "Maya",
            "applicationVendor": "Autodesk",
            "applicationVersion": "201800",
            "fileName": "D:\\SSD\\2024\\20240327\\轨道\\Mesh\\fbx_city_kt_guidao_01.fbx"
          },
          "revision": "",
          "subject": "",
          "title": "",
          "url": "D:\\Project\\shamohuocheshouge\\Client\\cocos\\SMHCSG\\assets\\models\\铁轨01.fbx"
        }
      }
    }
  },
  "materials": [
    {
      "extras": {
        "FBX-glTF-conv": {
          "raw": {
            "properties": {
              "ambient": {
                "value": [
                  0.5,
                  0.5,
                  0.5
                ]
              },
              "ambientFactor": {
                "value": 1.0
              },
              "bump": {
                "value": [
                  0.0,
                  0.0,
                  0.0
                ]
              },
              "bumpFactor": {
                "value": 1.0
              },
              "diffuse": {
                "value": [
                  0.5,
                  0.5,
                  0.5
                ]
              },
              "diffuseFactor": {
                "value": 1.0
              },
              "displacementColor": {
                "value": [
                  0.0,
                  0.0,
                  0.0
                ]
              },
              "displacementFactor": {
                "value": 1.0
              },
              "emissive": {
                "value": [
                  0.0,
                  0.0,
                  0.0
                ]
              },
              "emissiveFactor": {
                "value": 1.0
              },
              "normalMap": {
                "value": [
                  0.0,
                  0.0,
                  0.0
                ]
              },
              "shadingModel": "Lambert",
              "transparencyFactor": {
                "value": 0.0
              },
              "transparentColor": {
                "value": [
                  0.0,
                  0.0,
                  0.0
                ]
              },
              "vectorDisplacementColor": {
                "value": [
                  0.0,
                  0.0,
                  0.0
                ]
              },
              "vectorDisplacementFactor": {
                "value": 1.0
              }
            },
            "type": "lambert"
          }
        }
      },
      "name": "m_city_kt_guidao"
    }
  ],
  "meshes": [
    {
      "name": "fbx_city_kt_guidao_01",
      "primitives": [
        {
          "attributes": {
            "NORMAL": 1,
            "POSITION": 0,
            "TEXCOORD_0": 2,
            "TEXCOORD_1": 3
          },
          "indices": 4,
          "material": 0
        }
      ]
    }
  ],
  "nodes": [
    {
      "mesh": 0,
      "name": "fbx_city_kt_guidao_01"
    }
  ],
  "scenes": [
    {
      "nodes": [
        0
      ]
    }
  ]
}