{
  "accessors": [
    {
      "bufferView": 0,
      "componentType": 5126,
      "count": 40,
      "max": [
        0.3972785472869873,
        0.16249850392341614,
        2.336987257003784
      ],
      "min": [
        -0.3972785472869873,
        -0.16249850392341614,
        -0.06318553537130356
      ],
      "name": "MuBan5/POSITION",
      "type": "VEC3"
    },
    {
      "bufferView": 0,
      "byteOffset": 12,
      "componentType": 5126,
      "count": 40,
      "name": "MuBan5/NORMAL",
      "type": "VEC3"
    },
    {
      "bufferView": 0,
      "byteOffset": 24,
      "componentType": 5126,
      "count": 40,
      "name": "MuBan5/TEXCOORD_0",
      "type": "VEC2"
    },
    {
      "bufferView": 1,
      "componentType": 5123,
      "count": 114,
      "name": "MuBan5/INDICES",
      "type": "SCALAR"
    },
    {
      "bufferView": 2,
      "componentType": 5126,
      "count": 36,
      "max": [
        0.3998410105705261,
        0.2144915759563446,
        2.436642646789551
      ],
      "min": [
        -0.3998410105705261,
        -0.2144915759563446,
        -0.05640990287065506
      ],
      "name": "MuBan6/POSITION",
      "type": "VEC3"
    },
    {
      "bufferView": 2,
      "byteOffset": 12,
      "componentType": 5126,
      "count": 36,
      "name": "MuBan6/NORMAL",
      "type": "VEC3"
    },
    {
      "bufferView": 2,
      "byteOffset": 24,
      "componentType": 5126,
      "count": 36,
      "name": "MuBan6/TEXCOORD_0",
      "type": "VEC2"
    },
    {
      "bufferView": 3,
      "componentType": 5123,
      "count": 114,
      "name": "MuBan6/INDICES",
      "type": "SCALAR"
    },
    {
      "bufferView": 4,
      "componentType": 5126,
      "count": 40,
      "max": [
        0.3687748610973358,
        0.1535986065864563,
        2.254323959350586
      ],
      "min": [
        -0.3687748610973358,
        -0.1535985916852951,
        -0.06003238260746002
      ],
      "name": "MuBan7/POSITION",
      "type": "VEC3"
    },
    {
      "bufferView": 4,
      "byteOffset": 12,
      "componentType": 5126,
      "count": 40,
      "name": "MuBan7/NORMAL",
      "type": "VEC3"
    },
    {
      "bufferView": 4,
      "byteOffset": 24,
      "componentType": 5126,
      "count": 40,
      "name": "MuBan7/TEXCOORD_0",
      "type": "VEC2"
    },
    {
      "bufferView": 5,
      "componentType": 5123,
      "count": 114,
      "name": "MuBan7/INDICES",
      "type": "SCALAR"
    },
    {
      "bufferView": 6,
      "componentType": 5126,
      "count": 40,
      "max": [
        0.44257140159606934,
        0.1663900464773178,
        2.3878962993621826
      ],
      "min": [
        -0.44257140159606934,
        -0.16639003157615662,
        -0.06822486221790314
      ],
      "name": "MuBan4/POSITION",
      "type": "VEC3"
    },
    {
      "bufferView": 6,
      "byteOffset": 12,
      "componentType": 5126,
      "count": 40,
      "name": "MuBan4/NORMAL",
      "type": "VEC3"
    },
    {
      "bufferView": 6,
      "byteOffset": 24,
      "componentType": 5126,
      "count": 40,
      "name": "MuBan4/TEXCOORD_0",
      "type": "VEC2"
    },
    {
      "bufferView": 7,
      "componentType": 5123,
      "count": 114,
      "name": "MuBan4/INDICES",
      "type": "SCALAR"
    },
    {
      "bufferView": 8,
      "componentType": 5126,
      "count": 36,
      "max": [
        0.33202308416366577,
        0.1654406189918518,
        2.3900604248046875
      ],
      "min": [
        -0.33202308416366577,
        -0.165440633893013,
        -0.0652618333697319
      ],
      "name": "MuBan3/POSITION",
      "type": "VEC3"
    },
    {
      "bufferView": 8,
      "byteOffset": 12,
      "componentType": 5126,
      "count": 36,
      "name": "MuBan3/NORMAL",
      "type": "VEC3"
    },
    {
      "bufferView": 8,
      "byteOffset": 24,
      "componentType": 5126,
      "count": 36,
      "name": "MuBan3/TEXCOORD_0",
      "type": "VEC2"
    },
    {
      "bufferView": 9,
      "componentType": 5123,
      "count": 114,
      "name": "MuBan3/INDICES",
      "type": "SCALAR"
    },
    {
      "bufferView": 10,
      "componentType": 5126,
      "count": 36,
      "max": [
        0.35631322860717773,
        0.1775440126657486,
        2.572736978530884
      ],
      "min": [
        -0.3563132584095001,
        -0.1775440126657486,
        -0.06221192330121994
      ],
      "name": "MuBan2/POSITION",
      "type": "VEC3"
    },
    {
      "bufferView": 10,
      "byteOffset": 12,
      "componentType": 5126,
      "count": 36,
      "name": "MuBan2/NORMAL",
      "type": "VEC3"
    },
    {
      "bufferView": 10,
      "byteOffset": 24,
      "componentType": 5126,
      "count": 36,
      "name": "MuBan2/TEXCOORD_0",
      "type": "VEC2"
    },
    {
      "bufferView": 11,
      "componentType": 5123,
      "count": 114,
      "name": "MuBan2/INDICES",
      "type": "SCALAR"
    },
    {
      "bufferView": 12,
      "componentType": 5126,
      "count": 36,
      "max": [
        0.3229469656944275,
        0.1609182357788086,
        2.3218023777008057
      ],
      "min": [
        -0.3229468762874603,
        -0.1609182357788086,
        -0.06640131771564484
      ],
      "name": "MuBan1/POSITION",
      "type": "VEC3"
    },
    {
      "bufferView": 12,
      "byteOffset": 12,
      "componentType": 5126,
      "count": 36,
      "name": "MuBan1/NORMAL",
      "type": "VEC3"
    },
    {
      "bufferView": 12,
      "byteOffset": 24,
      "componentType": 5126,
      "count": 36,
      "name": "MuBan1/TEXCOORD_0",
      "type": "VEC2"
    },
    {
      "bufferView": 13,
      "componentType": 5123,
      "count": 114,
      "name": "MuBan1/INDICES",
      "type": "SCALAR"
    }
  ],
  "asset": {
    "copyright": "Copyright (c) 2018-2020 Chukong Technologies Inc.",
    "generator": "FBX-glTF-conv",
    "version": "2.0"
  },
  "bufferViews": [
    {
      "buffer": 0,
      "byteLength": 1280,
      "byteStride": 32,
      "name": "MuBan5",
      "target": 34962
    },
    {
      "buffer": 0,
      "byteLength": 228,
      "byteOffset": 1280,
      "target": 34963
    },
    {
      "buffer": 0,
      "byteLength": 1152,
      "byteOffset": 1508,
      "byteStride": 32,
      "name": "MuBan6",
      "target": 34962
    },
    {
      "buffer": 0,
      "byteLength": 228,
      "byteOffset": 2660,
      "target": 34963
    },
    {
      "buffer": 0,
      "byteLength": 1280,
      "byteOffset": 2888,
      "byteStride": 32,
      "name": "MuBan7",
      "target": 34962
    },
    {
      "buffer": 0,
      "byteLength": 228,
      "byteOffset": 4168,
      "target": 34963
    },
    {
      "buffer": 0,
      "byteLength": 1280,
      "byteOffset": 4396,
      "byteStride": 32,
      "name": "MuBan4",
      "target": 34962
    },
    {
      "buffer": 0,
      "byteLength": 228,
      "byteOffset": 5676,
      "target": 34963
    },
    {
      "buffer": 0,
      "byteLength": 1152,
      "byteOffset": 5904,
      "byteStride": 32,
      "name": "MuBan3",
      "target": 34962
    },
    {
      "buffer": 0,
      "byteLength": 228,
      "byteOffset": 7056,
      "target": 34963
    },
    {
      "buffer": 0,
      "byteLength": 1152,
      "byteOffset": 7284,
      "byteStride": 32,
      "name": "MuBan2",
      "target": 34962
    },
    {
      "buffer": 0,
      "byteLength": 228,
      "byteOffset": 8436,
      "target": 34963
    },
    {
      "buffer": 0,
      "byteLength": 1152,
      "byteOffset": 8664,
      "byteStride": 32,
      "name": "MuBan1",
      "target": 34962
    },
    {
      "buffer": 0,
      "byteLength": 228,
      "byteOffset": 9816,
      "target": 34963
    }
  ],
  "buffers": [
    {
      "byteLength": 10044,
      "uri": "out.bin"
    }
  ],
  "extras": {
    "FBX-glTF-conv": {
      "animationFrameRate": 30.0,
      "fbxFileHeaderInfo": {
        "creationTimeStamp": {
          "day": 27,
          "hour": 17,
          "millisecond": 460,
          "minute": 36,
          "month": 4,
          "second": 20,
          "year": 2025
        },
        "creator": "FBX SDK/FBX Plugins version 2016.0",
        "sceneInfo": {
          "author": "",
          "comment": "",
          "keywords": "",
          "original": {
            "applicationName": "3ds Max",
            "applicationVendor": "Autodesk",
            "applicationVersion": "2014",
            "fileName": "E:\\Work_SVN\\zuofanjingying\\Assets\\Art\\New\\FBX\\WeiLan_A.FBX"
          },
          "revision": "",
          "subject": "",
          "title": "",
          "url": "D:\\Project\\shamohuocheshouge\\Client\\cocos\\SMHCSG\\assets\\沙漠火车收割\\Models\\围栏_A.FBX"
        }
      }
    }
  },
  "images": [
    {
      "extras": {
        "FBX-glTF-conv": {
          "fileName": "E:\\Work_SVN\\zuofanjingying\\Assets\\Art\\New\\Texture\\Color.jpg",
          "relativeFileName": "..\\Texture\\Color.jpg"
        }
      },
      "name": "Map #3",
      "uri": "data:image/png;base64,"
    }
  ],
  "materials": [
    {
      "extras": {
        "FBX-glTF-conv": {
          "raw": {
            "properties": {
              "ambient": {
                "value": [
                  0.5879999995231628,
                  0.5879999995231628,
                  0.5879999995231628
                ]
              },
              "ambientFactor": {
                "value": 0.0
              },
              "bump": {
                "value": [
                  0.0,
                  0.0,
                  0.0
                ]
              },
              "bumpFactor": {
                "value": 1.0
              },
              "diffuse": {
                "texture": {
                  "index": 0
                },
                "value": [
                  0.5879999995231628,
                  0.5879999995231628,
                  0.5879999995231628
                ]
              },
              "diffuseFactor": {
                "value": 1.0
              },
              "displacementColor": {
                "value": [
                  0.0,
                  0.0,
                  0.0
                ]
              },
              "displacementFactor": {
                "value": 1.0
              },
              "emissive": {
                "value": [
                  0.0,
                  0.0,
                  0.0
                ]
              },
              "emissiveFactor": {
                "value": 0.0
              },
              "normalMap": {
                "value": [
                  0.0,
                  0.0,
                  0.0
                ]
              },
              "reflection": {
                "value": [
                  0.0,
                  0.0,
                  0.0
                ]
              },
              "reflectionFactor": {
                "value": 1.0
              },
              "shadingModel": "phong",
              "shininess": {
                "value": 2.0
              },
              "specular": {
                "value": [
                  0.8999999761581421,
                  0.8999999761581421,
                  0.8999999761581421
                ]
              },
              "specularFactor": {
                "value": 0.0
              },
              "transparencyFactor": {
                "value": 0.0
              },
              "transparentColor": {
                "value": [
                  1.0,
                  1.0,
                  1.0
                ]
              },
              "vectorDisplacementColor": {
                "value": [
                  0.0,
                  0.0,
                  0.0
                ]
              },
              "vectorDisplacementFactor": {
                "value": 1.0
              }
            },
            "type": "phong"
          }
        }
      },
      "name": "Material #27"
    }
  ],
  "meshes": [
    {
      "name": "MuBan5",
      "primitives": [
        {
          "attributes": {
            "NORMAL": 1,
            "POSITION": 0,
            "TEXCOORD_0": 2
          },
          "indices": 3,
          "material": 0
        }
      ]
    },
    {
      "name": "MuBan6",
      "primitives": [
        {
          "attributes": {
            "NORMAL": 5,
            "POSITION": 4,
            "TEXCOORD_0": 6
          },
          "indices": 7,
          "material": 0
        }
      ]
    },
    {
      "name": "MuBan7",
      "primitives": [
        {
          "attributes": {
            "NORMAL": 9,
            "POSITION": 8,
            "TEXCOORD_0": 10
          },
          "indices": 11,
          "material": 0
        }
      ]
    },
    {
      "name": "MuBan4",
      "primitives": [
        {
          "attributes": {
            "NORMAL": 13,
            "POSITION": 12,
            "TEXCOORD_0": 14
          },
          "indices": 15,
          "material": 0
        }
      ]
    },
    {
      "name": "MuBan3",
      "primitives": [
        {
          "attributes": {
            "NORMAL": 17,
            "POSITION": 16,
            "TEXCOORD_0": 18
          },
          "indices": 19,
          "material": 0
        }
      ]
    },
    {
      "name": "MuBan2",
      "primitives": [
        {
          "attributes": {
            "NORMAL": 21,
            "POSITION": 20,
            "TEXCOORD_0": 22
          },
          "indices": 23,
          "material": 0
        }
      ]
    },
    {
      "name": "MuBan1",
      "primitives": [
        {
          "attributes": {
            "NORMAL": 25,
            "POSITION": 24,
            "TEXCOORD_0": 26
          },
          "indices": 27,
          "material": 0
        }
      ]
    }
  ],
  "nodes": [
    {
      "mesh": 0,
      "name": "MuBan5",
      "rotation": [
        -0.7071067690849304,
        -0.0,
        0.0,
        0.7071067690849304
      ],
      "translation": [
        0.6642253994941711,
        0.0,
        3.856749231090362e-08
      ]
    },
    {
      "mesh": 1,
      "name": "MuBan6",
      "rotation": [
        -0.7071067690849304,
        -0.0,
        0.0,
        0.7071067690849304
      ],
      "translation": [
        1.4539368152618408,
        0.0,
        1.0105836167895177e-08
      ]
    },
    {
      "mesh": 2,
      "name": "MuBan7",
      "rotation": [
        -0.7071067690849304,
        -0.0,
        0.0,
        0.7071067690849304
      ],
      "translation": [
        2.251862049102783,
        0.0,
        3.650244195796404e-08
      ]
    },
    {
      "mesh": 3,
      "name": "MuBan4",
      "rotation": [
        -0.7071067690849304,
        -0.0,
        0.0,
        0.7071067690849304
      ],
      "translation": [
        -0.14061683416366577,
        0.0,
        1.6821491755081297e-08
      ]
    },
    {
      "mesh": 4,
      "name": "MuBan3",
      "rotation": [
        -0.7071067690849304,
        -0.0,
        0.0,
        0.7071067690849304
      ],
      "translation": [
        -0.8545111417770386,
        0.0,
        1.0911237069421986e-07
      ]
    },
    {
      "mesh": 5,
      "name": "MuBan2",
      "rotation": [
        -0.7071067690849304,
        -0.0,
        0.0,
        0.7071067690849304
      ],
      "translation": [
        -1.4876686334609985,
        0.0,
        1.211891458297032e-07
      ]
    },
    {
      "mesh": 6,
      "name": "MuBan1",
      "rotation": [
        -0.7071067690849304,
        -0.0,
        0.0,
        0.7071067690849304
      ],
      "translation": [
        -2.1163740158081055,
        0.0,
        1.074735536121807e-07
      ]
    }
  ],
  "samplers": [
    {}
  ],
  "scenes": [
    {
      "nodes": [
        0,
        1,
        2,
        3,
        4,
        5,
        6
      ]
    }
  ],
  "textures": [
    {
      "name": "Map #3",
      "sampler": 0,
      "source": 0
    }
  ]
}